<?xml version="1.0" standalone="no"?>
<!DOCTYPE svg PUBLIC "-//W3C//DTD SVG 1.1//EN" "http://www.w3.org/Graphics/SVG/1.1/DTD/svg11.dtd" >
<svg xmlns="http://www.w3.org/2000/svg">
<metadata>Generated by IcoMoon</metadata>
<defs>
<font id="icomoon" horiz-adv-x="1024">
<font-face units-per-em="1024" ascent="960" descent="-64" />
<missing-glyph horiz-adv-x="1024" />
<glyph unicode="&#x20;" horiz-adv-x="512" d="" />
<glyph unicode="&#xe900;" glyph-name="Ad-Banner_Fill" d="M410.253 397.19h30.565l-15.492 36.011zM808.698 645.146h-62.838l46.135 101.437h41.224c10.604 0.004 19.198 8.601 19.198 19.205 0 0.001 0 0.002 0 0.004v0 66.208c0 0.001 0 0.002 0 0.003 0 10.604-8.594 19.201-19.197 19.205h-107.042c-10.604-0.004-19.198-8.601-19.198-19.205 0-0.001 0-0.002 0-0.004v0-66.208c0-0.001 0-0.002 0-0.003 0-10.604 8.594-19.201 19.197-19.205h23.62l-46.134-101.437h-174.371v101.437h36.229c10.604 0.004 19.198 8.601 19.198 19.205 0 0.001 0 0.002 0 0.004v0 66.208c0 0.001 0 0.002 0 0.003 0 10.604-8.594 19.201-19.197 19.205h-107.042c-10.604-0.004-19.198-8.601-19.198-19.205 0-0.001 0-0.002 0-0.004v0-66.208c0-0.001 0-0.002 0-0.003 0-10.604 8.594-19.201 19.197-19.205h32.417v-101.437h-170.559l-46.134 101.437h23.62c10.604 0.004 19.198 8.601 19.198 19.205 0 0.001 0 0.002 0 0.004v0 66.208c0 0.001 0 0.002 0 0.003 0 10.604-8.594 19.201-19.197 19.205h-107.042c-10.603-0.004-19.197-8.601-19.197-19.205 0-0.001 0-0.002 0-0.004v0-66.208c0-0.001 0-0.002 0-0.003 0-10.604 8.594-19.201 19.197-19.205h41.224l46.135-101.437h-62.839c-34.657-0.045-62.738-28.133-62.771-62.788v-330.982c0.042-34.65 28.121-62.729 62.767-62.771h51.952v-124.604c0-0.019 0-0.041 0-0.064 0-10.603 8.595-19.198 19.198-19.198s19.198 8.595 19.198 19.198c0 0.023 0 0.045 0 0.067v-0.003 124.604h412.708v-124.604c0-0.019 0-0.041 0-0.064 0-10.603 8.595-19.198 19.198-19.198s19.198 8.595 19.198 19.198c0 0.023 0 0.045 0 0.067v-0.003 124.604h51.948c34.65 0.042 62.729 28.12 62.771 62.767v330.983c-0.033 34.658-28.114 62.747-62.767 62.792h-0.004zM745.375 785v27.792h68.646v-27.792h-33.163c-0.518 0.032-1.005 0.010-1.521 0zM243.165 785h-33.186v27.792h68.646v-27.792h-34.016c-0.488 0.009-0.952 0.029-1.444 0zM477.677 785v27.792h68.646v-27.792h-35.508c-0.254 0.010-0.465 0.146-0.721 0.146s-0.467-0.135-0.721-0.146zM476.41 314.287l-14.658 34.335h-72.435l-14.654-34.335-44.802 19.262 73.274 171.25c3.872 8.701 12.441 14.657 22.401 14.657s18.529-5.957 22.339-14.502l0.062-0.155 73.275-171.25zM571.874 323.917c-13.426 0.062-24.286 10.96-24.286 24.395 0 0.109 0.001 0.217 0.002 0.326v-0.016 146.549c0.010 13.408 10.876 24.275 24.283 24.285h0.001c42.29 0 122.264-20.518 122.264-97.56 0-77.462-79.974-97.978-122.264-97.978zM612.49 462.927c-4.365 1.69-9.689 3.276-15.161 4.468l-0.751 0.137v-91.697c21.355 4.189 48.569 15.91 48.569 46.059 0 12.142-3.348 30.146-32.657 41.033z" />
<glyph unicode="&#xe901;" glyph-name="Ad-Banner" d="M808.698 645.146h-62.838l46.135 101.437h41.224c10.604 0.004 19.198 8.601 19.198 19.205 0 0.001 0 0.002 0 0.004v0 66.208c0 0.001 0 0.002 0 0.003 0 10.604-8.594 19.201-19.197 19.205h-107.042c-10.604-0.004-19.198-8.601-19.198-19.205 0-0.001 0-0.002 0-0.004v0-66.208c0-0.001 0-0.002 0-0.003 0-10.604 8.594-19.201 19.197-19.205h23.62l-46.134-101.437h-174.371v101.437h36.229c10.604 0.004 19.198 8.601 19.198 19.205 0 0.001 0 0.002 0 0.004v0 66.208c0 0.001 0 0.002 0 0.003 0 10.604-8.594 19.201-19.197 19.205h-107.042c-10.604-0.004-19.198-8.601-19.198-19.205 0-0.001 0-0.002 0-0.004v0-66.208c0-0.001 0-0.002 0-0.003 0-10.604 8.594-19.201 19.197-19.205h32.417v-101.437h-170.559l-46.134 101.437h23.62c10.604 0.004 19.198 8.601 19.198 19.205 0 0.001 0 0.002 0 0.004v0 66.208c0 0.001 0 0.002 0 0.003 0 10.604-8.594 19.201-19.197 19.205h-107.042c-10.603-0.004-19.197-8.601-19.197-19.205 0-0.001 0-0.002 0-0.004v0-66.208c0-0.001 0-0.002 0-0.003 0-10.604 8.594-19.201 19.197-19.205h41.224l46.135-101.437h-62.839c-34.657-0.045-62.738-28.133-62.771-62.788v-330.982c0.042-34.65 28.121-62.729 62.767-62.771h51.952v-124.604c0-0.019 0-0.041 0-0.064 0-10.603 8.595-19.198 19.198-19.198s19.198 8.595 19.198 19.198c0 0.023 0 0.045 0 0.067v-0.003 124.604h412.708v-124.604c0-0.019 0-0.041 0-0.064 0-10.603 8.595-19.198 19.198-19.198s19.198 8.595 19.198 19.198c0 0.023 0 0.045 0 0.067v-0.003 124.604h51.948c34.65 0.042 62.729 28.12 62.771 62.767v330.983c-0.033 34.658-28.114 62.747-62.767 62.792h-0.004zM745.375 785v27.792h68.646v-27.792h-33.165c-0.518 0.032-1.005 0.010-1.521 0zM243.164 785h-33.185v27.792h68.646v-27.792h-34.018c-0.489 0.009-0.952 0.029-1.443 0zM477.677 785v27.792h68.646v-27.792h-35.508c-0.254 0.010-0.465 0.146-0.721 0.146s-0.467-0.135-0.721-0.146zM833.073 251.375c-0.020-13.45-10.924-24.347-24.374-24.354h-593.396c-13.452 0.008-24.355 10.904-24.375 24.352v330.981c0.017 13.455 10.92 24.358 24.373 24.375h593.397c13.455-0.017 24.358-10.92 24.375-24.373v-0.002zM425.325 519.455c-9.89-0.044-18.379-5.993-22.129-14.5l-0.061-0.156-73.273-171.25 44.802-19.262 14.654 34.335h72.436l14.656-34.335 44.802 19.262-73.275 171.25c-3.869 8.7-12.437 14.657-22.395 14.657-0.076 0-0.152 0-0.228-0.001h0.012zM410.254 397.19l15.072 36.011 15.492-36.011zM571.874 519.455c-13.408-0.010-24.274-10.877-24.283-24.284v-146.549c-0.001-0.092-0.002-0.201-0.002-0.31 0-13.434 10.859-24.332 24.279-24.394h0.006c42.29 0 122.264 20.516 122.264 97.978 0 77.041-79.974 97.559-122.264 97.559zM596.579 375.836v91.697c6.222-1.33 11.546-2.916 16.692-4.865l-0.782 0.26c29.31-10.887 32.659-28.891 32.659-41.033 0-30.148-27.215-41.87-48.569-46.059z" />
<glyph unicode="&#xe902;" glyph-name="Add-Customer_Fill" d="M427.833 336.031c-129.542 0-301.76-13.948-301.76-134.531 0-135.364 227.125-135.364 301.76-135.364 129.542 0 301.76 13.948 301.76 134.531 0 135.364-227.125 135.364-301.76 135.364zM426.563 429.26h1.271c110.624 0 200.302 89.678 200.302 200.302s-89.678 200.302-200.302 200.302c-110.598 0-200.26-89.637-200.302-200.225v-0.004c-0.001-0.217-0.001-0.475-0.001-0.733 0-110.045 89.035-199.295 198.999-199.642h0.033zM878.729 515.708h-61.917v60.292c-0.036 10.575-8.618 19.134-19.198 19.134s-19.162-8.559-19.198-19.131v-60.295h-61.844c-0.019 0-0.041 0-0.064 0-10.603 0-19.198-8.595-19.198-19.198s8.595-19.198 19.198-19.198c0.023 0 0.045 0 0.067 0h61.841v-60.292c0.036-10.575 8.618-19.134 19.198-19.134s19.162 8.559 19.198 19.131v60.294h61.917c10.575 0.036 19.134 8.618 19.134 19.198s-8.559 19.162-19.131 19.198h-0.003z" />
<glyph unicode="&#xe903;" glyph-name="Add-Customer" d="M427.833 336.031c-129.542 0-301.76-13.948-301.76-134.531 0-135.364 227.125-135.364 301.76-135.364 129.542 0 301.76 13.948 301.76 134.531 0 135.364-227.125 135.364-301.76 135.364zM427.833 104.531c-174.75 0-263.365 32.625-263.365 96.969 0 64.688 86.146 96.135 263.365 96.135 174.75 0 263.364-32.625 263.364-96.969 0-64.688-86.146-96.135-263.364-96.135zM426.563 429.26h1.271c110.624 0 200.302 89.678 200.302 200.302s-89.678 200.302-200.302 200.302c-110.598 0-200.26-89.637-200.302-200.225v-0.004c-0.001-0.217-0.001-0.475-0.001-0.733 0-110.045 89.035-199.295 198.999-199.642h0.033zM426.625 467.656c-88.821 0.324-160.699 72.402-160.699 161.269 0 0.224 0 0.448 0.001 0.672v-0.035c0 0 0 0 0 0 0 89.418 72.488 161.906 161.906 161.906s161.906-72.488 161.906-161.906c0-89.418-72.488-161.906-161.906-161.906v0zM878.729 515.708h-61.917v60.292c-0.036 10.575-8.618 19.134-19.198 19.134s-19.162-8.559-19.198-19.131v-60.295h-61.844c-0.019 0-0.041 0-0.064 0-10.603 0-19.198-8.595-19.198-19.198s8.595-19.198 19.198-19.198c0.023 0 0.045 0 0.067 0h61.841v-60.292c0.036-10.575 8.618-19.134 19.198-19.134s19.162 8.559 19.198 19.131v60.294h61.917c10.575 0.036 19.134 8.618 19.134 19.198s-8.559 19.162-19.131 19.198h-0.003z" />
<glyph unicode="&#xe904;" glyph-name="Add-Item" d="M172.125 657.156h489.292c10.603 0 19.198 8.595 19.198 19.198s-8.595 19.198-19.198 19.198h-489.292c-10.603 0-19.198-8.595-19.198-19.198s8.595-19.198 19.198-19.198v0zM172.125 496.687h489.292c10.603 0 19.198 8.595 19.198 19.198s-8.595 19.198-19.198 19.198v0h-489.292c-10.603 0-19.198-8.595-19.198-19.198s8.595-19.198 19.198-19.198v0zM487.396 373.656h-315.271c-0.019 0-0.041 0-0.064 0-10.603 0-19.198-8.595-19.198-19.198s8.595-19.198 19.198-19.198c0.023 0 0.045 0 0.067 0h315.268c0.019 0 0.041 0 0.064 0 10.603 0 19.198 8.595 19.198 19.198s-8.595 19.198-19.198 19.198c-0.023 0-0.045 0-0.067 0h0.003zM918.792 373.656h-118.354v115.605c0 10.608-8.6 19.208-19.208 19.208s-19.208-8.6-19.208-19.208v0-115.604h-118.229c-0.019 0-0.041 0-0.064 0-10.603 0-19.198-8.595-19.198-19.198s8.595-19.198 19.198-19.198c0.023 0 0.045 0 0.067 0h118.226v-115.615c0-10.608 8.6-19.208 19.208-19.208s19.208 8.6 19.208 19.208v0 115.615h118.354c0.019 0 0.041 0 0.064 0 10.603 0 19.198 8.595 19.198 19.198s-8.595 19.198-19.198 19.198c-0.023 0-0.045 0-0.067 0h0.003z" />
<glyph unicode="&#xe905;" glyph-name="Admin_Fill" d="M437.24 442.063h1.229c106.488 0.349 192.678 86.755 192.678 193.292 0 106.753-86.54 193.293-193.293 193.293s-193.293-86.54-193.293-193.293c0-106.537 86.19-192.943 192.645-193.292h0.033zM555.093 126.507l-9.813 17.067c-6.576 11.161-10.461 24.589-10.461 38.924 0 7.329 1.015 14.421 2.913 21.142l-0.132-0.547c3.315 11.786 8.902 22.001 16.302 30.612l-0.088-0.105c-11.709 13.703-18.834 31.629-18.834 51.219 0 14.348 3.822 27.804 10.504 39.404l-0.203-0.383c0.213 0.213 0.427 0.64 0.64 0.853l9.813 16.213c3.318 5.792 7.212 10.773 11.715 15.129l0.018 0.018c-29.959 3.164-64.723 4.969-99.907 4.969-3.952 0-7.898-0.023-11.838-0.068l0.599 0.005c-132.907 0-309.547-14.293-309.547-137.813 0-138.453 232.96-138.453 309.547-138.453 3.433-0.044 7.488-0.069 11.55-0.069 44.293 0 87.893 2.971 130.609 8.725l-4.986-0.549c-16.466 6.733-29.733 18.485-38.201 33.328l-0.199 0.378zM863.36 219.093l-17.493 13.653v3.2l17.493 13.867c7.357 5.861 12.031 14.819 12.031 24.869 0 5.76-1.536 11.162-4.22 15.818l0.082-0.153-26.453 45.44c-5.434 9.812-15.727 16.345-27.546 16.345-4.218 0-8.242-0.832-11.916-2.341l0.209 0.076-20.693-8.32c-0.793 0.531-1.704 1.031-2.659 1.449l-0.114 0.045-2.987 21.76c-2.080 15.607-15.307 27.52-31.316 27.52-0.015 0-0.031 0-0.046 0h-53.118c-0.032 0-0.070 0-0.108 0-15.857 0-28.983-11.69-31.231-26.922l-0.021-0.172-2.987-22.187c-0.853-0.427-1.707-1.067-2.56-1.493l-21.12 8.533c-3.351 1.313-7.231 2.074-11.289 2.074-11.718 0-21.953-6.347-27.456-15.79l-0.081-0.151-26.453-45.653c-2.746-4.6-4.369-10.145-4.369-16.069 0-10.060 4.682-19.027 11.985-24.841l0.065-0.050 17.493-13.653v-3.2l-17.493-13.652c-7.352-5.924-12.017-14.927-12.017-25.019 0-5.78 1.53-11.202 4.206-15.884l-0.083 0.157 26.453-45.44c5.564-9.759 15.901-16.231 27.75-16.231 4.138 0 8.092 0.79 11.719 2.226l-0.215-0.075 20.693 8.32c0.853-0.427 1.92-1.067 2.773-1.493l2.987-21.547c1.995-15.592 15.183-27.521 31.157-27.521 0.072 0 0.143 0 0.214 0.001h53.109c0.088-0.001 0.191-0.001 0.295-0.001 15.746 0 28.784 11.593 31.044 26.709l0.021 0.172 2.987 22.187c0.853 0.427 1.707 1.067 2.56 1.493l21.12-8.533c3.312-1.265 7.142-1.997 11.143-1.997 11.741 0 22.009 6.306 27.602 15.716l0.081 0.148 26.88 46.507c2.479 4.406 3.939 9.672 3.939 15.28 0 10.040-4.681 18.986-11.98 24.776l-0.065 0.050zM721.28 187.947c-0.032 0-0.069 0-0.107 0-25.626 0-46.4 20.774-46.4 46.4s20.774 46.4 46.4 46.4c25.588 0 46.339-20.713 46.4-46.287v-0.006c0-0.008 0-0.018 0-0.028 0-25.604-20.704-46.373-46.283-46.479h-0.010zM721.28 264.747c-0.032 0-0.069 0-0.106 0-16.789 0-30.4-13.611-30.4-30.4s13.611-30.4 30.4-30.4c16.789 0 30.4 13.611 30.4 30.4 0 0.037 0 0.075 0 0.112v-0.006c-0.091 16.694-13.6 30.202-30.285 30.293h-0.009z" />
<glyph unicode="&#xe906;" glyph-name="Admin" d="M537.073 134.615c-27.703-2.759-59.879-4.333-92.422-4.333-2.236 0-4.469 0.007-6.702 0.022l0.342-0.002c-168.010 0-253.198 31.115-253.198 92.49 0 62.24 82.823 92.49 253.198 92.49 1.197 0.008 2.614 0.012 4.031 0.012 23.466 0 46.657-1.177 69.518-3.476l-2.882 0.235c0.49-0.044 1.060-0.070 1.635-0.070 10.607 0 19.205 8.598 19.205 19.205 0 10.031-7.69 18.266-17.497 19.13l-0.073 0.005c-20.968 2.143-45.311 3.365-69.939 3.365-1.406 0-2.811-0.004-4.215-0.012l0.217 0.001c-125.177 0-291.594-13.562-291.594-130.885 0-130.885 219.469-130.885 291.594-130.885 1.937-0.013 4.229-0.021 6.523-0.021 33.842 0 67.301 1.642 100.301 4.85l-4.189-0.329c9.712 1.043 17.209 9.195 17.209 19.097 0 10.604-8.597 19.201-19.201 19.201-0.656 0-1.304-0.033-1.943-0.097l0.081 0.007zM437.24 442.063h1.229c106.488 0.349 192.678 86.755 192.678 193.292 0 106.753-86.54 193.293-193.293 193.293s-193.293-86.54-193.293-193.293c0-106.537 86.19-192.943 192.645-193.292h0.033zM437.312 480.458c-85.951 0.329-155.501 70.081-155.501 156.078 0 86.2 69.879 156.079 156.079 156.079s156.079-69.879 156.079-156.079c0-85.997-69.55-155.75-155.47-156.078h-0.032zM863.354 218.197l-0.115 0.094-17.521 13.698c0.010 0.521 0.010 1.042 0.010 1.573s0 1.052-0.010 1.573l17.615 13.771c7.296 5.884 11.925 14.823 11.925 24.842 0 5.798-1.55 11.234-4.257 15.916l0.082-0.153-26.292 45.479c-5.495 9.813-15.825 16.336-27.68 16.336-4.192 0-8.194-0.816-11.855-2.298l0.212 0.076-20.792-8.344c-0.865 0.521-1.74 1.021-2.615 1.521l-3.115 21.677c-2.062 15.569-15.253 27.458-31.221 27.458-0.028 0-0.057 0-0.085 0h-53.152c-0.057 0-0.124 0.001-0.191 0.001-15.778 0-28.833-11.66-31.018-26.833l-0.020-0.168-3.177-22.187c-0.853-0.49-1.719-0.989-2.573-1.5l-21.083 8.469c-3.354 1.314-7.238 2.075-11.3 2.075-11.666 0-21.865-6.281-27.4-15.646l-0.081-0.148-26.448-45.772c-2.721-4.584-4.329-10.105-4.329-16.002 0-10.056 4.676-19.019 11.973-24.834l0.064-0.049 17.531-13.708c-0.010-0.521-0.010-1.042-0.010-1.563s0-1.041 0.010-1.573l-17.635-13.792c-7.281-5.879-11.899-14.805-11.899-24.809 0-5.799 1.551-11.235 4.262-15.917l-0.082 0.153 26.302-45.489c5.509-9.801 15.84-16.313 27.693-16.313 4.183 0 8.177 0.811 11.833 2.285l-0.213-0.076 20.792 8.344c0.865-0.511 1.729-1.021 2.604-1.51l3.115-21.667c2.052-15.59 15.256-27.5 31.243-27.5 0.021 0 0.042 0 0.063 0h53.143c0.057 0 0.124-0.001 0.191-0.001 15.786 0 28.848 11.664 31.039 26.843l0.020 0.168 3.177 22.177c0.853 0.489 1.719 0.989 2.573 1.5l21.073-8.458c3.332-1.284 7.188-2.028 11.217-2.028 11.679 0 21.899 6.252 27.494 15.591l0.081 0.146 26.833 46.49c2.487 4.415 3.953 9.693 3.953 15.313 0 10.003-4.642 18.922-11.89 24.72l-0.063 0.049zM807.333 233.562c-0.021-3.005-0.202-5.942-0.535-8.833l0.035 0.375c-0.068-0.606-0.107-1.308-0.107-2.019 0-6.122 2.869-11.574 7.336-15.085l0.041-0.031 20.771-16.24-20.677-35.833-24.531 9.843c-2.12 0.877-4.582 1.387-7.163 1.387-4.178 0-8.045-1.335-11.196-3.602l0.057 0.039c-4.276-3.127-9.129-6.007-14.252-8.408l-0.539-0.227c-5.891-2.71-10.117-8.151-11.081-14.656l-0.013-0.105-3.74-26.083h-41.313l-3.75 26.083c-0.97 6.626-5.213 12.080-11.006 14.732l-0.12 0.049c-5.62 2.581-10.441 5.431-14.929 8.71l0.242-0.168c-3.112 2.269-7.012 3.63-11.231 3.63-2.574 0-5.030-0.507-7.272-1.426l0.128 0.046-24.5-9.844-20.708 35.812 20.771 16.25c4.507 3.544 7.375 8.997 7.375 15.12 0 0.702-0.038 1.396-0.111 2.079l0.007-0.085c-0.318 2.544-0.5 5.488-0.5 8.474s0.182 5.93 0.535 8.821l-0.035-0.347c0.067 0.6 0.105 1.296 0.105 2 0 6.119-2.864 11.569-7.324 15.083l-0.041 0.031-20.792 16.26 20.698 35.812 24.531-9.844c2.119-0.874 4.579-1.382 7.158-1.382 4.18 0 8.048 1.334 11.202 3.598l-0.058-0.039c4.271 3.131 9.118 6.008 14.237 8.401l0.534 0.224c5.902 2.707 10.137 8.154 11.102 14.666l0.013 0.105 3.729 26.083h41.312l3.75-26.063c0.97-6.626 5.213-12.080 11.005-14.732l0.12-0.049c5.624-2.579 10.449-5.43 14.94-8.71l-0.241 0.168c3.116-2.265 7.018-3.623 11.238-3.623 2.571 0 5.024 0.504 7.266 1.419l-0.129-0.046 24.5 9.844 20.708-35.823-20.781-16.25c-4.506-3.543-7.374-8.994-7.374-15.115 0-0.734 0.041-1.458 0.121-2.17l-0.008 0.087c0.295-2.501 0.472-5.418 0.489-8.372v-0.024zM721.093 291.218c-31.825 0-57.625-25.8-57.625-57.625s25.8-57.625 57.625-57.625c31.825 0 57.625 25.8 57.625 57.625v0c-0.039 31.809-25.815 57.586-57.621 57.626h-0.004zM721.093 214.364c-10.62 0-19.229 8.609-19.229 19.229s8.609 19.229 19.229 19.229c10.62 0 19.229-8.609 19.229-19.229v0c-0.012-10.615-8.614-19.217-19.228-19.229h-0.001z" />
<glyph unicode="&#xe907;" glyph-name="Analytics_Fill" d="M217.833 291.584c-10.607-0.003-19.205-8.601-19.208-19.208v0-143.646c0-10.608 8.6-19.208 19.208-19.208s19.208 8.6 19.208 19.208v0 143.646c-0.003 10.607-8.601 19.205-19.208 19.208v0zM417.25 410.605c-10.607-0.003-19.205-8.601-19.208-19.208v0-262.667c0-10.608 8.6-19.208 19.208-19.208s19.208 8.6 19.208 19.208v0 262.666c-0.003 10.607-8.601 19.205-19.208 19.208v0zM616.646 362.376c-10.607-0.003-19.205-8.601-19.208-19.208v0-214.438c0-10.608 8.6-19.208 19.208-19.208s19.208 8.6 19.208 19.208v0 214.438c-0.003 10.607-8.601 19.205-19.208 19.208v0zM816.063 478.334c-10.607-0.003-19.205-8.601-19.208-19.208v0-330.396c0-10.608 8.6-19.208 19.208-19.208s19.208 8.6 19.208 19.208v0 330.395c-0.003 10.607-8.601 19.205-19.208 19.209v0zM816.063 786.48c-48.849-0.052-88.436-39.632-88.5-88.473v-0.006c0.11-15.132 4.051-29.319 10.899-41.671l-0.227 0.447-66.027-66.027c-14.922 12.557-34.353 20.188-55.565 20.188-21.519 0-41.204-7.852-56.346-20.847l0.116 0.097-58.954 41.375c-0.917 0.524-1.984 1.004-3.1 1.379l-0.13 0.038c4.915 10.673 7.781 23.157 7.781 36.312 0 48.945-39.677 88.622-88.622 88.622s-88.622-39.677-88.622-88.622c0-15.011 3.732-29.151 10.319-41.541l-0.232 0.479-72.055-72.057c-15.206 13.371-35.278 21.53-57.256 21.53-47.991 0-86.896-38.904-86.896-86.896s38.904-86.896 86.896-86.896c47.991 0 86.896 38.904 86.896 86.896 0 12.214-2.52 23.84-7.068 34.385l0.216-0.564 73.939 73.94c14.653-11.638 33.419-18.672 53.828-18.672 22.894 0 43.72 8.85 59.245 23.316l-0.052-0.048c0.858-1.13 1.801-2.12 2.843-2.995l0.028-0.023 57.365-40.258c-5.376-10.949-8.547-23.821-8.615-37.428v-0.023c0.247-48.685 39.77-88.056 88.49-88.056s88.243 39.371 88.49 88.033v0.023c-0.078 13.848-3.362 26.91-9.146 38.507l0.229-0.507 67.005 67.005c14.491-11.126 32.868-17.854 52.812-17.922h0.016c48.866 0 88.479 39.613 88.479 88.479s-39.613 88.479-88.479 88.479v0z" />
<glyph unicode="&#xe908;" glyph-name="Analytics" d="M217.844 291.584c-10.604-0.004-19.198-8.601-19.198-19.205 0-0.001 0-0.002 0-0.003v0-143.646c0-0.019 0-0.041 0-0.064 0-10.603 8.595-19.198 19.198-19.198s19.198 8.595 19.198 19.198c0 0.023 0 0.045 0 0.067v-0.003 143.646c0 0.001 0 0.002 0 0.003 0 10.604-8.594 19.201-19.197 19.205v0zM417.25 410.605c-10.604-0.004-19.198-8.601-19.198-19.205 0-0.001 0-0.002 0-0.004v0-262.667c0-0.019 0-0.041 0-0.064 0-10.603 8.595-19.198 19.198-19.198s19.198 8.595 19.198 19.198c0 0.023 0 0.045 0 0.067v-0.003 262.666c0 0.001 0 0.002 0 0.003 0 10.604-8.594 19.201-19.198 19.205v0zM616.646 362.376c-10.607-0.003-19.205-8.601-19.208-19.208v0-214.438c0-10.608 8.6-19.208 19.208-19.208s19.208 8.6 19.208 19.208v0 214.438c-0.003 10.607-8.601 19.205-19.208 19.208v0zM816.063 478.334c-10.607-0.003-19.205-8.601-19.208-19.208v0-330.396c0-10.608 8.6-19.208 19.208-19.208s19.208 8.6 19.208 19.208v0 330.395c-0.003 10.607-8.601 19.205-19.208 19.209v0zM816.063 786.48c-48.849-0.052-88.436-39.632-88.5-88.473v-0.006c0.11-15.132 4.051-29.319 10.899-41.671l-0.227 0.447-66.027-66.027c-14.922 12.557-34.352 20.188-55.564 20.188-21.519 0-41.203-7.852-56.345-20.847l0.116 0.097-58.947 41.375c-0.923 0.528-1.996 1.009-3.119 1.385l-0.129 0.037c4.913 10.671 7.778 23.154 7.778 36.306 0 48.942-39.675 88.617-88.617 88.617s-88.617-39.675-88.617-88.617c0-15.011 3.732-29.15 10.319-41.54l-0.232 0.479-72.058-72.060c-15.211 13.385-35.295 21.553-57.286 21.553-47.998 0-86.908-38.91-86.908-86.908s38.91-86.908 86.908-86.908c47.998 0 86.908 38.91 86.908 86.908 0 12.212-2.519 23.835-7.065 34.379l0.216-0.564 73.945 73.945c14.653-11.643 33.422-18.679 53.835-18.679 22.892 0 43.718 8.85 59.241 23.316l-0.052-0.048c0.857-1.13 1.799-2.119 2.841-2.995l0.028-0.023 57.38-40.263c-5.373-10.948-8.542-23.819-8.609-37.423v-0.023c0.078-48.81 39.664-88.347 88.484-88.347s88.406 39.538 88.484 88.34v0.007c-0.078 13.848-3.362 26.91-9.146 38.507l0.229-0.507 67.005 67.005c14.491-11.126 32.868-17.854 52.812-17.922h0.016c48.866 0 88.479 39.613 88.479 88.479s-39.613 88.479-88.479 88.479v0zM207.948 440.521c-27.655 0-50.073 22.418-50.073 50.073s22.418 50.073 50.073 50.073c27.655 0 50.073-22.418 50.073-50.073 0-0.004 0-0.007 0-0.011v0.001c-0.039-27.637-22.435-50.030-50.070-50.063h-0.003zM417.249 618.313c-27.644 0.006-50.052 22.417-50.052 50.063 0 27.649 22.414 50.063 50.063 50.063s50.063-22.414 50.063-50.063v0c-0.039-27.637-22.435-50.029-50.069-50.063h-0.003zM616.645 472.375c-27.65 0.006-50.063 22.422-50.063 50.073 0 27.655 22.418 50.073 50.073 50.073s50.073-22.418 50.073-50.073c0-0.004 0-0.007 0-0.011v0.001c-0.032-27.643-22.438-50.042-50.081-50.063h-0.002zM816.062 647.938c-27.649 0-50.063 22.414-50.063 50.063s22.414 50.063 50.063 50.063c27.649 0 50.063-22.414 50.063-50.063v0c-0.035-27.635-22.427-50.027-50.059-50.063h-0.003z" />
<glyph unicode="&#xe909;" glyph-name="App-Setting_Fill" d="M512.021 463.448c0 0 0 0 0 0-8.514 0-15.417-6.902-15.417-15.417s6.902-15.417 15.417-15.417c8.514 0 15.417 6.902 15.417 15.417v0c-0.010 8.51-6.906 15.406-15.416 15.417h-0.001zM597.271 478.417l-16.333 28.24-19.021-7.646c-1.416-0.593-3.061-0.938-4.787-0.938-2.805 0-5.398 0.911-7.498 2.452l0.035-0.025c-3.193 2.341-6.818 4.48-10.65 6.245l-0.391 0.162c-3.941 1.807-6.768 5.445-7.408 9.795l-0.008 0.070-2.896 20.25h-32.584l-2.916-20.271c-0.647-4.4-3.457-8.024-7.296-9.801l-0.079-0.033c-4.251-1.968-7.895-4.125-11.293-6.6l0.189 0.131c-2.061-1.482-4.636-2.37-7.418-2.37-1.718 0-3.358 0.339-4.854 0.953l0.085-0.031-19.063 7.646-16.313-28.26 16.146-12.625c2.996-2.361 4.902-5.989 4.902-10.062 0-0.466-0.025-0.926-0.074-1.379l0.005 0.056c-0.229-2.365-0.375-4.437-0.375-6.375s0.146-4.011 0.375-6.396c0.044-0.395 0.068-0.853 0.068-1.318 0-4.076-1.915-7.705-4.895-10.037l-0.028-0.021-16.125-12.625 16.333-28.26 19.021 7.646c1.414 0.583 3.055 0.921 4.775 0.921 2.805 0 5.4-0.9 7.513-2.426l-0.038 0.026c3.187-2.334 6.804-4.472 10.626-6.242l0.395-0.164c3.941-1.807 6.768-5.445 7.408-9.795l0.008-0.070 2.896-20.26h32.604l2.896 20.26c0.644 4.413 3.464 8.047 7.316 9.821l0.079 0.033c4.25 1.96 7.895 4.114 11.291 6.588l-0.187-0.13c2.058 1.485 4.631 2.376 7.413 2.376 1.721 0 3.362-0.341 4.86-0.959l-0.085 0.031 19.042-7.646 16.333 28.25-16.167 12.635c-2.996 2.357-4.902 5.983-4.902 10.053 0 0.466 0.025 0.925 0.074 1.378l-0.005-0.056c0.187 1.885 0.375 4.073 0.375 6.396-0.009 2.223-0.144 4.404-0.401 6.549l0.026-0.268c-0.048 0.416-0.075 0.898-0.075 1.386 0 4.092 1.917 7.735 4.902 10.082l0.028 0.021zM512.021 407.010c-0.006 0-0.014 0-0.021 0-22.655 0-41.021 18.366-41.021 41.021s18.366 41.021 41.021 41.021c22.655 0 41.021-18.366 41.021-41.021 0 0 0 0 0 0v0c-0.023-22.638-18.363-40.985-40.997-41.021h-0.003zM675.667 840.531h-327.334c-37.351-0.042-67.619-30.306-67.667-67.652v-649.754c0.048-37.35 30.316-67.615 67.663-67.656h327.337c37.351 0.042 67.619 30.306 67.667 67.652v649.754c-0.048 37.35-30.316 67.615-67.663 67.656h-0.004zM607.687 124.823h-191.375c-5.891 0-10.667 4.776-10.667 10.667s4.776 10.667 10.667 10.667v0h191.375c5.891 0 10.667-4.776 10.667-10.667s-4.776-10.667-10.667-10.667v0zM621.229 407.927l-19.708-34.124c-3.919-6.576-10.993-10.913-19.080-10.913-2.817 0-5.51 0.526-7.988 1.485l0.151-0.051-16.021 6.427c-1-0.604-1.979-1.177-2.979-1.729l-2.417-16.917c-1.525-10.641-10.578-18.73-21.521-18.73-0.051 0-0.103 0-0.154 0.001h-39.013c-0.007 0-0.016 0-0.025 0-11.074 0-20.225 8.23-21.671 18.908l-0.013 0.113-2.375 16.615c-1 0.552-1.979 1.125-2.979 1.729l-15.854-6.365c-2.391-0.974-5.164-1.539-8.070-1.539-8.209 0-15.365 4.511-19.123 11.189l-0.057 0.11-19.333 33.438c-1.819 3.14-2.892 6.908-2.892 10.927 0 6.93 3.191 13.115 8.184 17.166l13.52 10.563c-0.021 0.604-0.021 1.188-0.021 1.771s0 1.167 0.021 1.76l-13.396 10.469c-5.101 4.062-8.342 10.272-8.342 17.238 0 4.106 1.126 7.949 3.086 11.238l-0.056-0.101 19.396 33.583c3.884 6.6 10.953 10.96 19.040 10.96 2.824 0 5.525-0.532 8.006-1.501l-0.15 0.052 16.063-6.448c0.979 0.604 1.979 1.177 2.958 1.729l2.438 16.927c1.527 10.635 10.577 18.719 21.515 18.719 0.046 0 0.092 0 0.138 0h39.013c0.008 0 0.017 0 0.026 0 11.070 0 20.219-8.225 21.67-18.897l0.013-0.113 2.375-16.604q1.5-0.844 3-1.749l15.854 6.375c2.392 0.977 5.168 1.544 8.077 1.544 8.214 0 15.371-4.523 19.117-11.215l0.057-0.111 19.333-33.417c1.814-3.137 2.885-6.9 2.885-10.913 0-6.945-3.206-13.141-8.218-17.189l-13.5-10.554c0.021-0.583 0.021-1.177 0.021-1.771s0-1.188-0.021-1.771l13.396-10.469 0.063-0.063c5.072-4.056 8.293-10.243 8.293-17.183 0-3.889-1.012-7.543-2.786-10.711l0.057 0.111z" />
<glyph unicode="&#xe90a;" glyph-name="App-Setting" d="M675.667 840.531h-327.334c-37.351-0.042-67.619-30.306-67.667-67.652v-649.754c0.048-37.35 30.316-67.615 67.663-67.656h327.337c37.351 0.042 67.619 30.306 67.667 67.652v649.754c-0.048 37.35-30.316 67.615-67.663 67.656h-0.004zM704.917 123.125c-0.017-16.149-13.101-29.237-29.248-29.26h-327.336c-16.149 0.023-29.233 13.111-29.251 29.259v649.752c0.017 16.15 13.102 29.238 29.248 29.26h80.855c0.982-9.618 9.006-17.067 18.785-17.135h128.050c9.785 0.068 17.81 7.518 18.785 17.055l0.007 0.081h80.853c16.149-0.022 29.234-13.11 29.251-29.259v-0.002zM607.688 146.156h-191.375c-5.891 0-10.667-4.776-10.667-10.667s4.776-10.667 10.667-10.667v0h191.375c5.891 0 10.667 4.776 10.667 10.667s-4.776 10.667-10.667 10.667v0zM615.605 435.771l-13.396 10.469c0.021 0.583 0.021 1.177 0.021 1.771s0 1.187-0.021 1.771l13.458 10.521c5.054 4.081 8.26 10.277 8.26 17.222 0 4.013-1.071 7.777-2.942 11.020l0.057-0.107-19.333 33.417c-3.803 6.802-10.96 11.326-19.174 11.326-2.908 0-5.684-0.567-8.223-1.597l0.147 0.053-15.854-6.375q-1.5 0.906-3 1.749l-2.375 16.604c-1.463 10.786-10.612 19.011-21.683 19.011-0.010 0-0.019 0-0.029 0h-39.020c-0.039 0-0.085 0-0.131 0-10.938 0-19.988-8.084-21.501-18.603l-0.014-0.116-2.438-16.927c-0.979-0.552-1.979-1.125-2.958-1.729l-16.063 6.448c-2.332 0.917-5.032 1.449-7.856 1.449-8.087 0-15.155-4.36-18.983-10.857l-0.056-0.103-19.396-33.583c-1.904-3.188-3.030-7.031-3.030-11.137 0-6.967 3.241-13.177 8.297-17.204l0.045-0.034 13.396-10.469c-0.021-0.594-0.021-1.177-0.021-1.76s0-1.167 0.021-1.771l-13.479-10.531c-5.034-4.083-8.225-10.268-8.225-17.198 0-4.019 1.073-7.787 2.948-11.034l-0.057 0.107 19.334-33.437c3.81-6.79 10.964-11.304 19.172-11.304 2.909 0 5.685 0.567 8.224 1.596l-0.147-0.053 15.854 6.365c1-0.604 1.979-1.177 2.979-1.729l2.375-16.615c1.458-10.79 10.61-19.021 21.684-19.021 0.009 0 0.017 0 0.026 0h39.020c0.043 0 0.095 0 0.146 0 10.943 0 19.996 8.089 21.507 18.613l0.014 0.116 2.417 16.917c1 0.552 1.979 1.125 2.979 1.729l16.021-6.427c2.328-0.909 5.023-1.436 7.841-1.436 8.086 0 15.16 4.338 19.020 10.813l0.056 0.101 19.708 34.125c1.717 3.057 2.729 6.71 2.729 10.599 0 6.939-3.22 13.126-8.248 17.148l-0.044 0.034zM576.646 448.010c0-2.323-0.188-4.511-0.375-6.396-0.044-0.396-0.069-0.856-0.069-1.322 0-4.071 1.906-7.696 4.875-10.032l0.027-0.021 16.167-12.635-16.334-28.25-19.042 7.646c-1.414 0.589-3.056 0.93-4.778 0.93-2.781 0-5.353-0.891-7.447-2.404l0.037 0.026c-3.21-2.344-6.854-4.498-10.701-6.29l-0.403-0.168c-3.932-1.807-6.752-5.441-7.388-9.785l-0.008-0.069-2.896-20.26h-32.604l-2.896 20.26c-0.649 4.419-3.476 8.057-7.337 9.832l-0.080 0.033c-4.217 1.935-7.834 4.072-11.202 6.532l0.181-0.126c-2.074 1.501-4.669 2.401-7.474 2.401-1.721 0-3.362-0.339-4.862-0.953l0.086 0.031-19.021-7.646-16.333 28.26 16.125 12.625c3.007 2.352 4.923 5.981 4.923 10.058 0 0.464-0.025 0.922-0.073 1.374l0.005-0.056c-0.229 2.385-0.375 4.459-0.375 6.396s0.146 4.011 0.375 6.375c0.044 0.397 0.069 0.857 0.069 1.323 0 4.073-1.906 7.702-4.875 10.042l-0.027 0.021-16.146 12.625 16.313 28.26 19.063-7.646c1.412-0.583 3.051-0.922 4.769-0.922 2.782 0 5.357 0.888 7.456 2.396l-0.038-0.026c3.209 2.343 6.853 4.501 10.699 6.299l0.405 0.17c3.918 1.809 6.728 5.433 7.367 9.764l0.008 0.070 2.916 20.271h32.583l2.896-20.25c0.649-4.419 3.476-8.057 7.337-9.832l0.080-0.033c4.224-1.927 7.849-4.065 11.219-6.53l-0.178 0.124c2.066-1.517 4.658-2.427 7.464-2.427 1.725 0 3.371 0.344 4.87 0.968l-0.084-0.031 19.021 7.646 16.333-28.24-16.146-12.635c-3.012-2.368-4.929-6.012-4.929-10.103 0-0.488 0.027-0.97 0.081-1.445l-0.005 0.058c0.23-1.877 0.366-4.059 0.375-6.27v-0.011zM512.021 489.052c-0.006 0-0.014 0-0.021 0-22.655 0-41.021-18.366-41.021-41.021s18.366-41.021 41.021-41.021c22.655 0 41.021 18.366 41.021 41.021v0c-0.023 22.638-18.363 40.986-40.997 41.021h-0.003zM512.021 432.615c0 0 0 0 0 0-8.514 0-15.417 6.902-15.417 15.417s6.902 15.417 15.417 15.417c8.514 0 15.417-6.902 15.417-15.417 0 0 0 0 0 0v0c-0.011-8.51-6.906-15.406-15.416-15.417h-0.001z" />
<glyph unicode="&#xe90b;" glyph-name="Arrow-Backward_Fill" d="M476.958 599.937v139.917c0 0.001 0 0.002 0 0.003 0 10.604-8.596 19.2-19.2 19.2-4.737 0-9.074-1.716-12.422-4.559l0.028 0.023-340.425-287.958c-4.172-3.547-6.802-8.8-6.802-14.667s2.63-11.12 6.775-14.644l0.027-0.023 340.426-287.939c3.321-2.821 7.657-4.537 12.395-4.537 10.604 0 19.2 8.596 19.2 19.2 0 0.001 0 0.002 0 0.004v0 182.813c348.416-6.458 408.896-188.333 411.313-196.125 2.441-7.989 9.745-13.701 18.384-13.708h0.001c1.405 0.006 2.771 0.158 4.088 0.44l-0.13-0.023c8.773 1.891 15.252 9.584 15.252 18.79 0 0.838-0.054 1.663-0.158 2.473l0.010-0.096c-47.261 379.084-366.99 433.667-448.761 441.417z" />
<glyph unicode="&#xe90c;" glyph-name="Arrow-Backward" d="M476.958 599.937v139.917c0 0.001 0 0.002 0 0.003 0 10.604-8.596 19.2-19.2 19.2-4.737 0-9.074-1.716-12.422-4.559l0.028 0.023-340.425-287.958c-4.172-3.547-6.802-8.8-6.802-14.667s2.63-11.12 6.775-14.644l0.027-0.023 340.426-287.939c3.321-2.821 7.657-4.537 12.395-4.537 10.604 0 19.2 8.596 19.2 19.2 0 0.001 0 0.002 0 0.004v0 182.813c348.416-6.458 408.896-188.333 411.313-196.125 2.441-7.989 9.745-13.701 18.384-13.708h0.001c1.405 0.006 2.771 0.158 4.088 0.44l-0.13-0.023c8.773 1.891 15.252 9.584 15.252 18.79 0 0.838-0.054 1.663-0.158 2.473l0.010-0.096c-47.261 379.084-366.99 433.667-448.761 441.417zM457.76 385.354c-10.604-0.004-19.198-8.601-19.198-19.205 0-0.001 0-0.002 0-0.004v0-160.791l-291.5 246.541 291.5 246.562v-116.459c0.003-10.53 8.477-19.081 18.977-19.208h0.012c72.266-4.178 139.194-23.219 199.023-54.092l-2.772 1.3c104.083-52.511 181.571-144.916 213.122-256.599l0.7-2.901c-60.354 62.479-179.906 134.854-409.865 134.854z" />
<glyph unicode="&#xe90d;" glyph-name="Arrow-Double-Left" d="M490.625 632.24c-3.473 3.475-8.272 5.625-13.573 5.625s-10.1-2.15-13.573-5.625l-170.667-170.667c-3.475-3.473-5.625-8.272-5.625-13.573s2.15-10.1 5.625-13.573l170.667-170.667c3.478-3.5 8.295-5.667 13.618-5.667 10.601 0 19.195 8.594 19.195 19.195 0 5.323-2.167 10.14-5.666 13.617l-157.084 157.095 157.083 157.094c3.475 3.473 5.625 8.272 5.625 13.573s-2.15 10.1-5.625 13.573v0zM574.104 448l157.083 157.094c3.531 3.483 5.719 8.321 5.719 13.669 0 10.601-8.594 19.195-19.195 19.195-5.348 0-10.186-2.187-13.666-5.716l-170.669-170.669c-3.475-3.473-5.625-8.272-5.625-13.573s2.15-10.1 5.625-13.573l170.667-170.667c3.478-3.5 8.295-5.667 13.618-5.667 10.601 0 19.195 8.594 19.195 19.195 0 5.323-2.167 10.14-5.666 13.617l-0.001 0.001z" />
<glyph unicode="&#xe90e;" glyph-name="Arrow-Double-Right" d="M731.187 461.573l-170.667 170.667c-3.483 3.531-8.32 5.718-13.669 5.718-10.601 0-19.195-8.594-19.195-19.195 0-5.349 2.188-10.186 5.717-13.667l157.084-157.096-157.082-157.094c-3.5-3.478-5.667-8.295-5.667-13.618 0-10.601 8.594-19.195 19.195-19.195 5.323 0 10.14 2.167 13.617 5.666l170.668 170.668c3.475 3.473 5.625 8.272 5.625 13.572s-2.15 10.101-5.626 13.573v0zM319.958 632.24c-3.478 3.5-8.295 5.667-13.618 5.667-10.601 0-19.195-8.594-19.195-19.195 0-5.323 2.167-10.14 5.666-13.617l157.084-157.095-157.083-157.094c-3.5-3.478-5.667-8.295-5.667-13.618 0-10.601 8.594-19.195 19.195-19.195 5.323 0 10.14 2.167 13.617 5.666l170.668 170.668c3.475 3.473 5.625 8.272 5.625 13.573s-2.15 10.1-5.625 13.573v0z" />
<glyph unicode="&#xe90f;" glyph-name="Arrow-Down" d="M911.083 655.083c-3.86 3.862-9.192 6.25-15.083 6.25s-11.224-2.389-15.083-6.25l-368.916-368.916-368.917 368.916c-3.846 3.779-9.124 6.112-14.946 6.112-11.781 0-21.331-9.55-21.331-21.331 0-5.822 2.333-11.1 6.115-14.949l383.997-383.997c3.86-3.861 9.192-6.25 15.083-6.25s11.224 2.389 15.083 6.25l384 384c3.861 3.859 6.249 9.192 6.249 15.082s-2.389 11.224-6.25 15.083v0z" />
<glyph unicode="&#xe910;" glyph-name="Arrow-Forward_Fill" d="M547.046 599.937v139.917c0 0.001 0 0.002 0 0.003 0 10.604 8.596 19.2 19.2 19.2 4.737 0 9.074-1.716 12.422-4.559l-0.028 0.023 340.427-287.957c4.172-3.547 6.802-8.8 6.802-14.667s-2.63-11.12-6.775-14.644l-0.027-0.023-340.428-287.939c-3.321-2.821-7.657-4.537-12.395-4.537-10.604 0-19.2 8.596-19.2 19.2 0 0.001 0 0.002 0 0.004v0 182.813c-348.416-6.458-408.896-188.333-411.312-196.125-2.441-7.989-9.745-13.701-18.385-13.708h-0.001c-1.405 0.006-2.771 0.158-4.088 0.44l0.13-0.023c-8.773 1.891-15.252 9.584-15.252 18.79 0 0.838 0.054 1.663 0.158 2.473l-0.010-0.096c47.261 379.084 366.99 433.667 448.761 441.417z" />
<glyph unicode="&#xe911;" glyph-name="Arrow-Forward" d="M98.285 158.521c-0.094-0.714-0.148-1.539-0.148-2.377 0-9.206 6.479-16.898 15.125-18.767l0.126-0.023c1.187-0.259 2.553-0.411 3.954-0.417h0.005c8.64 0.008 15.944 5.719 18.35 13.572l0.036 0.136c2.417 7.792 62.896 189.667 411.312 196.125v-182.812c0-0.001 0-0.002 0-0.003 0-10.604 8.596-19.2 19.2-19.2 4.737 0 9.074 1.716 12.422 4.559l-0.028-0.023 340.426 287.937c4.172 3.547 6.802 8.8 6.802 14.667s-2.63 11.12-6.775 14.644l-0.027 0.023-340.427 287.958c-3.321 2.821-7.657 4.537-12.395 4.537-10.604 0-19.2-8.596-19.2-19.2 0-0.001 0-0.002 0-0.004v0-139.917c-81.77-7.75-401.499-62.333-448.76-441.417zM156.379 250.5c32.251 114.584 109.741 206.99 211.47 258.421l2.354 1.079c57.057 29.572 123.985 48.613 194.917 52.73l1.333 0.062c10.513 0.128 18.986 8.678 18.989 19.208v0 116.459l291.499-246.563-291.5-246.541v160.791c0 0.001 0 0.002 0 0.003 0 10.604-8.594 19.201-19.197 19.205v0c-229.958 0-349.51-72.375-409.865-134.854z" />
<glyph unicode="&#xe912;" glyph-name="Arrow-Left" d="M350.167 448l368.916 368.917c3.942 3.873 6.385 9.261 6.385 15.219 0 11.781-9.55 21.331-21.331 21.331-5.958 0-11.346-2.443-15.216-6.382l-384.003-384.003c-3.862-3.86-6.25-9.192-6.25-15.083s2.389-11.224 6.25-15.083l384-384c3.85-3.803 9.145-6.153 14.988-6.153 11.781 0 21.331 9.55 21.331 21.331 0 5.843-2.35 11.138-6.156 14.991l0.002-0.002z" />
<glyph unicode="&#xe913;" glyph-name="Arrow-Right" d="M719.083 463.083l-384 384c-3.846 3.779-9.124 6.112-14.946 6.112-11.781 0-21.331-9.55-21.331-21.331 0-5.822 2.333-11.1 6.115-14.949l368.913-368.914-368.916-368.917c-3.942-3.873-6.385-9.261-6.385-15.219 0-11.781 9.55-21.331 21.331-21.331 5.958 0 11.346 2.443 15.216 6.382l384.003 384.003c3.861 3.859 6.249 9.192 6.249 15.083s-2.388 11.223-6.249 15.083v0z" />
<glyph unicode="&#xe914;" glyph-name="Arrow-Up" d="M911.083 271.083l-384 384c-3.86 3.862-9.192 6.25-15.083 6.25s-11.224-2.389-15.083-6.25l-384-384c-3.803-3.85-6.153-9.145-6.153-14.988 0-11.781 9.55-21.331 21.331-21.331 5.843 0 11.138 2.35 14.991 6.156l368.915 368.914 368.917-368.916c3.846-3.779 9.124-6.112 14.946-6.112 11.781 0 21.331 9.55 21.331 21.331 0 5.822-2.333 11.1-6.115 14.949l0.003-0.003z" />
<glyph unicode="&#xe915;" glyph-name="Back" d="M885.333 469.364h-694.953l282.224 281.052c3.877 3.864 6.276 9.209 6.276 15.115 0 11.785-9.554 21.339-21.339 21.339-5.88 0-11.204-2.378-15.063-6.224l-318.718-317.407c-2.005-1.958-3.622-4.304-4.73-6.918l-0.052-0.139c-0.364-1.152-0.649-2.51-0.799-3.908l-0.008-0.095c-0.393-1.203-0.688-2.611-0.831-4.064l-0.007-0.084 0.007-0.031-0.007-0.031c0.005-5.904 2.401-11.248 6.272-15.115v0l318.874-317.499c3.859-3.846 9.183-6.224 15.063-6.224 11.785 0 21.339 9.554 21.339 21.339 0 5.905-2.399 11.251-6.275 15.114l-282.346 281.115h695.074c11.782 0 21.333 9.551 21.333 21.333s-9.551 21.333-21.333 21.333v0z" />
<glyph unicode="&#xe916;" glyph-name="Ban" d="M512 851.198c-222.676-0.006-403.187-180.522-403.187-403.198 0-222.68 180.518-403.198 403.198-403.198s403.198 180.518 403.198 403.198v0c-0.262 222.578-180.629 402.942-403.184 403.198h-0.025zM147.208 448c0 0.189-0.001 0.413-0.001 0.636 0 201.124 163.043 364.166 364.166 364.166 94.077 0 179.823-35.674 244.447-94.231l-0.308 0.275-514.363-514.353c-58.238 64.109-93.905 149.639-93.941 243.499v0.008zM512 83.198c-93.962 0.037-179.569 35.779-243.997 94.394l0.294-0.264 514.38 514.37c58.378-64.342 94.114-150.157 94.114-244.319 0-201.132-163.050-364.181-364.181-364.181-0.215 0-0.429 0-0.644 0.001h0.034z" />
<glyph unicode="&#xe917;" glyph-name="Billing-Doller_Fill" d="M466.813 381.021c0-11.896 9.083-19.656 31.125-26.385v55.417c-19-2.406-31.125-13.583-31.125-29.031zM527.708 303.427v-61.792c24.396 3.708 33.187 18.448 33.187 31.375 0 16.156-12.604 23.854-33.187 30.417zM720.958 527.74c-16.14 20.296-33.831 38.153-53.275 53.935l-0.639 0.503c18.317 10.797 30.414 30.425 30.414 52.878 0 33.786-27.389 61.174-61.174 61.174-0.071 0-0.141 0-0.212 0h-19.816l57.37 87.011c1.988 2.976 3.172 6.635 3.172 10.571 0 10.601-8.592 19.196-19.193 19.2h-35.896c-0.937-0.017-2.043-0.026-3.151-0.026-32.5 0-63.105 8.117-89.897 22.433l1.026-0.501c-18.112 10.336-39.8 16.429-62.913 16.429-35.822 0-68.225-14.638-91.553-38.26l-0.013-0.013v-0.021l-22.375-22.426c-3.471-3.475-5.617-8.273-5.617-13.573 0-3.928 1.179-7.581 3.203-10.623l-0.044 0.071 46.26-70.272h-8.677c-0.060 0-0.131 0-0.203 0-33.785 0-61.173-27.388-61.173-61.173 0-22.463 12.107-42.098 30.152-52.735l0.286-0.156c-82.175-68.96-134.99-170.589-138.299-284.629l-0.013-0.556v-94.803c0.101-86.876 70.5-157.275 157.366-157.376h271.841c86.876 0.101 157.275 70.5 157.376 157.366v94.813c-2.294 87.875-33.713 167.992-84.91 231.498l0.575-0.738zM527.708 205.198v-16.302c-0.032-8.197-6.684-14.829-14.885-14.829s-14.853 6.632-14.885 14.826v15.94c-27.18 1.583-51.61 12.218-70.589 28.904l0.131-0.113c-2.974 2.717-4.833 6.611-4.833 10.94 0 3.359 1.119 6.457 3.005 8.941l-0.027-0.037 5.063 6.854c2.445 3.264 6.119 5.491 10.324 5.993l0.072 0.007c0.512 0.065 1.105 0.103 1.706 0.103 3.543 0 6.782-1.297 9.271-3.441l-0.018 0.016c12.52-10.838 28.139-18.422 45.356-21.27l0.54-0.074v69.865c-35.146 9.115-71.875 22.917-71.875 67.083 0 35.989 29.437 63.458 71.875 67.469v16.988c0.032 8.197 6.684 14.829 14.885 14.829s14.853-6.632 14.885-14.826v-17.378c22.473-2.206 42.606-10.775 58.972-23.859l-0.223 0.172c3.241-2.727 5.286-6.786 5.286-11.322 0-3.543-1.248-6.795-3.328-9.34l0.021 0.026-5.104-6.406c-2.757-3.384-6.924-5.528-11.592-5.528-3.579 0-6.864 1.261-9.435 3.362l0.027-0.021c-9.706 7.509-21.372 12.985-34.090 15.566l-0.536 0.091v-61.833c37.562-10.261 73.625-24.552 73.625-70.5 0-30.999-19.396-65.634-73.625-70.895z" />
<glyph unicode="&#xe918;" glyph-name="Billing-Doller" d="M720.958 527.74c-16.14 20.296-33.831 38.153-53.275 53.935l-0.639 0.503c18.317 10.797 30.414 30.425 30.414 52.878 0 33.786-27.389 61.174-61.174 61.174-0.071 0-0.141 0-0.212 0h-19.816l57.37 87.011c1.988 2.976 3.172 6.635 3.172 10.571 0 10.601-8.592 19.196-19.193 19.2h-35.896c-0.935-0.016-2.039-0.026-3.144-0.026-32.506 0-63.116 8.116-89.915 22.433l1.027-0.501c-18.107 10.324-39.789 16.411-62.891 16.411-35.819 0-68.22-14.631-91.555-38.242l-0.012-0.013-0.021-0.021-22.364-22.426c-3.464-3.474-5.607-8.268-5.607-13.562 0-3.928 1.179-7.581 3.203-10.623l-0.044 0.071 46.26-70.281h-8.687c-0.060 0-0.13 0-0.201 0-33.786 0-61.175-27.389-61.175-61.175 0-22.46 12.104-42.093 30.145-52.732l0.286-0.156c-82.17-68.962-134.98-170.592-138.282-284.633l-0.013-0.555v-94.803c0.097-86.877 70.499-157.279 157.366-157.376h271.832c86.876 0.101 157.275 70.5 157.376 157.366v94.813c-2.295 87.875-33.714 167.992-84.91 231.497l0.575-0.737zM391.052 774.573l11.323 11.354c16.432 16.634 39.24 26.937 64.455 26.937 16.268 0 31.535-4.289 44.731-11.797l-0.447 0.234c31.127-16.822 68.135-26.71 107.452-26.71 1.105 0 2.207 0.008 3.308 0.023l-0.167-0.002h0.229l-51.52-78.167h-127.949zM387.959 657.833h248.125c12.658-0.040 22.904-10.31 22.904-22.974s-10.246-22.934-22.9-22.974h-248.129c-0.021 0-0.045 0-0.070 0-12.688 0-22.974 10.286-22.974 22.974s10.286 22.974 22.974 22.974c0.025 0 0.049 0 0.074 0h-0.004zM766.875 202.176c-0.067-65.676-53.284-118.9-118.951-118.979h-271.831c-65.679 0.078-118.901 53.3-118.979 118.972v94.811c2.752 114.288 61.575 214.269 149.916 273.795l1.209 0.768c0.775 0.611 1.465 1.249 2.103 1.936l0.011 0.012h203.803c0.637-0.687 1.314-1.315 2.036-1.888l0.037-0.028c29.13-18.513 53.826-40.995 74.163-67.045l0.483-0.642c45.506-56.251 73.803-128.075 75.989-206.427l0.011-0.479zM527.698 346.594v61.833c13.257-2.669 24.927-8.145 34.828-15.799l-0.192 0.143c2.544-2.081 5.829-3.342 9.408-3.342 4.668 0 8.835 2.144 11.57 5.502l0.021 0.027 5.104 6.407c2.059 2.518 3.307 5.77 3.307 9.313 0 4.536-2.045 8.595-5.264 11.304l-0.022 0.018c-16.146 12.914-36.283 21.484-58.3 23.651l-0.46 0.037v17.373c0 0.017 0 0.037 0 0.056 0 8.215-6.66 14.875-14.875 14.875s-14.875-6.66-14.875-14.875c0-0.020 0-0.040 0-0.059v0.003-16.989c-42.458-4.011-71.896-31.479-71.896-67.469 0-44.156 36.729-57.969 71.896-67.083v-69.865c-17.762 2.917-33.385 10.502-46.023 21.442l0.117-0.099c-2.426 2.134-5.628 3.436-9.135 3.436-0.65 0-1.29-0.045-1.917-0.131l0.073 0.008c-4.265-0.507-7.93-2.731-10.336-5.95l-0.028-0.039-5.073-6.854c-1.865-2.443-2.989-5.54-2.989-8.9 0-4.336 1.872-8.235 4.851-10.933l0.013-0.011c18.843-16.577 43.27-27.213 70.133-28.777l0.315-0.015v-15.937c0.032-8.191 6.68-14.819 14.875-14.819s14.843 6.628 14.875 14.816v16.305c54.24 5.26 73.635 39.896 73.635 70.896 0 45.959-36.083 60.241-73.635 70.501zM497.948 354.636c-22.052 6.719-31.125 14.489-31.125 26.385 0 15.448 12.115 26.624 31.125 29.031zM527.698 241.636v61.791c20.594-6.552 33.198-14.26 33.198-30.417 0-12.927-8.792-27.667-33.198-31.375z" />
<glyph unicode="&#xe919;" glyph-name="Billing-Euro_Fill" d="M720.958 527.74c-16.14 20.296-33.831 38.153-53.275 53.935l-0.639 0.503c18.317 10.797 30.414 30.425 30.414 52.878 0 33.786-27.389 61.174-61.174 61.174-0.071 0-0.141 0-0.212 0h-19.816l57.37 87.011c1.988 2.976 3.172 6.635 3.172 10.571 0 10.601-8.592 19.196-19.193 19.2h-35.896c-0.937-0.017-2.043-0.026-3.151-0.026-32.5 0-63.105 8.117-89.897 22.433l1.026-0.501c-18.112 10.336-39.8 16.429-62.913 16.429-35.822 0-68.225-14.638-91.553-38.26l-0.013-0.013v-0.021l-22.375-22.426c-3.471-3.475-5.617-8.273-5.617-13.573 0-3.928 1.179-7.581 3.203-10.623l-0.044 0.071 46.26-70.272h-8.677c-0.060 0-0.131 0-0.203 0-33.785 0-61.173-27.388-61.173-61.173 0-22.463 12.107-42.098 30.152-52.735l0.286-0.156c-82.175-68.96-134.99-170.589-138.299-284.629l-0.013-0.556v-94.803c0.101-86.876 70.5-157.275 157.366-157.376h271.841c86.876 0.101 157.275 70.5 157.376 157.366v94.813c-2.294 87.875-33.713 167.992-84.91 231.498l0.575-0.738zM552.708 369.646c8.027-0.137 14.482-6.677 14.482-14.724s-6.455-14.587-14.469-14.724h-107.263c-0.555-4.268-0.873-9.206-0.875-14.217v-0.002c0.005-4.735 0.315-9.392 0.911-13.959l-0.058 0.543h107.271c8.027-0.137 14.482-6.677 14.482-14.724s-6.455-14.587-14.469-14.724h-99.659c13.981-33.933 46.795-57.384 85.086-57.384 0.651 0 1.3 0.007 1.947 0.020l-0.097-0.002c25.334 0.176 47.919 11.796 62.867 29.942l0.113 0.141c2.69 3.33 6.774 5.442 11.35 5.442 2.461 0 4.779-0.611 6.812-1.689l-0.079 0.038 12.917-6.833c3.816-2.055 6.577-5.653 7.463-9.937l0.016-0.095c0.182-0.849 0.287-1.825 0.287-2.825 0-3.391-1.201-6.501-3.202-8.929l0.019 0.024c-22.499-28.38-56.972-46.42-95.659-46.42-1.021 0-2.039 0.013-3.054 0.038l0.151-0.003c-1.411-0.052-3.069-0.082-4.733-0.082-61.971 0-114.336 41.13-131.287 97.581l-0.25 0.97h-7.062c-8.027 0.137-14.482 6.677-14.482 14.724s6.455 14.587 14.469 14.724h2.013c-0.505 4.015-0.799 8.674-0.812 13.4v0.017c0 5.011 0.303 9.951 0.891 14.803l-0.058-0.584h-2.021c-8.027 0.137-14.482 6.677-14.482 14.724s6.455 14.587 14.469 14.724h7.471c17.312 56.991 69.393 97.754 130.994 97.754 1.716 0 3.425-0.032 5.126-0.094l-0.246 0.007c0.964 0.027 2.097 0.043 3.235 0.043 38.628 0 73.040-18.053 95.258-46.183l0.195-0.256c1.948-2.388 3.128-5.469 3.128-8.827 0-1.013-0.107-2.001-0.312-2.953l0.017 0.092c-0.903-4.375-3.663-7.97-7.402-9.983l-0.078-0.038-12.979-6.875c-1.95-1.027-4.26-1.63-6.712-1.63-4.579 0-8.667 2.103-11.35 5.395l-0.021 0.027c-15.060 18.288-37.645 29.908-62.95 30.083h-0.030c-0.594 0.014-1.293 0.022-1.994 0.022-37.925 0-70.457-23.092-84.301-55.983l-0.225-0.601z" />
<glyph unicode="&#xe91a;" glyph-name="Billing-Euro" d="M720.958 527.74c-16.14 20.296-33.831 38.153-53.275 53.935l-0.639 0.503c18.317 10.797 30.414 30.425 30.414 52.878 0 33.786-27.389 61.174-61.174 61.174-0.071 0-0.141 0-0.212 0h-19.816l57.37 87.011c1.988 2.976 3.172 6.635 3.172 10.571 0 10.601-8.592 19.196-19.193 19.2h-35.896c-0.937-0.017-2.043-0.026-3.151-0.026-32.5 0-63.105 8.117-89.897 22.433l1.026-0.501c-18.112 10.336-39.8 16.429-62.913 16.429-35.822 0-68.225-14.638-91.554-38.26l-0.013-0.013v-0.021l-22.375-22.426c-3.471-3.475-5.617-8.273-5.617-13.573 0-3.928 1.179-7.581 3.203-10.623l-0.044 0.071 46.26-70.272h-8.677c-0.060 0-0.131 0-0.203 0-33.785 0-61.173-27.388-61.173-61.173 0-22.463 12.107-42.098 30.152-52.735l0.286-0.156c-82.175-68.96-134.99-170.589-138.299-284.629l-0.013-0.556v-94.803c0.101-86.876 70.5-157.275 157.366-157.376h271.841c86.876 0.101 157.275 70.5 157.376 157.366v94.813c-2.294 87.875-33.713 167.992-84.91 231.498l0.575-0.738zM402.375 785.906c16.43 16.648 39.245 26.959 64.469 26.959 16.268 0 31.534-4.289 44.729-11.799l-0.447 0.234c31.117-16.823 68.114-26.71 107.421-26.71 1.112 0 2.222 0.008 3.331 0.024l-0.168-0.002h0.229l-51.52-78.167h-127.939l-51.437 78.116zM387.958 657.833h248.125c12.658-0.040 22.904-10.31 22.904-22.974s-10.246-22.934-22.9-22.974h-248.129c-12.658 0.040-22.904 10.31-22.904 22.974s10.246 22.934 22.9 22.974h0.004zM766.875 202.176c-0.067-65.676-53.284-118.9-118.951-118.979h-271.841c-65.674 0.079-118.891 53.303-118.959 118.973v94.809c2.743 114.29 61.569 214.275 149.916 273.795l1.209 0.768c0.775 0.611 1.465 1.249 2.103 1.936l0.011 0.012h203.793c0.637-0.687 1.314-1.315 2.036-1.888l0.037-0.028c29.13-18.513 53.826-40.995 74.163-67.045l0.483-0.642c45.506-56.251 73.803-128.075 75.989-206.427l0.011-0.479zM540 426.208c25.334-0.176 47.919-11.796 62.867-29.942l0.113-0.141c2.705-3.319 6.793-5.421 11.371-5.421 2.452 0 4.762 0.603 6.792 1.668l-0.080-0.038 12.979 6.875c3.816 2.051 6.576 5.646 7.463 9.926l0.016 0.095c0.188 0.86 0.295 1.848 0.295 2.861 0 3.357-1.18 6.438-3.149 8.851l0.020-0.025c-22.413 28.385-56.825 46.439-95.453 46.439-1.137 0-2.271-0.016-3.401-0.047l0.166 0.004c-1.455 0.056-3.164 0.087-4.88 0.087-61.601 0-113.682-40.762-130.741-96.786l-0.253-0.968h-7.458c-8.027-0.137-14.482-6.677-14.482-14.724s6.455-14.587 14.469-14.724h2.034c-0.53-4.268-0.833-9.208-0.833-14.218v-0.001c0.013-4.742 0.308-9.402 0.868-13.978l-0.056 0.562h-2c-8.027-0.137-14.482-6.677-14.482-14.724s6.455-14.587 14.469-14.724h7.075c17.201-57.421 69.566-98.551 131.537-98.551 1.665 0 3.322 0.030 4.973 0.089l-0.239-0.007c0.865-0.022 1.883-0.035 2.904-0.035 38.687 0 73.16 18.041 95.466 46.168l0.193 0.252c1.981 2.403 3.183 5.514 3.183 8.904 0 1-0.104 1.975-0.303 2.916l0.016-0.092c-0.903 4.378-3.663 7.976-7.402 9.993l-0.078 0.038-12.917 6.833c-1.954 1.040-4.272 1.651-6.733 1.651-4.577 0-8.66-2.112-11.329-5.415l-0.022-0.028c-15.060-18.288-37.645-29.908-62.949-30.084h-0.030c-0.551-0.012-1.2-0.019-1.851-0.019-38.291 0-71.106 23.451-84.864 56.774l-0.223 0.61h99.646c8.027 0.137 14.482 6.677 14.482 14.724s-6.455 14.587-14.469 14.724h-107.284c-0.539 4.025-0.848 8.682-0.853 13.411v0.006c0.002 5.013 0.319 9.951 0.934 14.796l-0.060-0.577h107.249c8.027 0.137 14.482 6.677 14.482 14.724s-6.455 14.587-14.469 14.724h-99.242c14.069 33.492 46.601 56.584 84.526 56.584 0.701 0 1.401-0.008 2.098-0.024l-0.104 0.002z" />
<glyph unicode="&#xe91b;" glyph-name="Billing-GTM_Fill" d="M511.979 427.312c-52.677 0-88.073-39-88.073-97.052 0-57.146 36.219-97.052 88.073-97.052 0.195-0.002 0.425-0.002 0.656-0.002 13.914 0 27.082 3.195 38.811 8.89l-0.529-0.232-34.167 37.625 31.333 26.438 33.813-37.646c11.412 16.749 18.222 37.428 18.222 59.698 0 0.802-0.009 1.603-0.026 2.401l0.002-0.119c0 57.146-36.229 97.052-88.115 97.052zM720.968 527.74c-16.143 20.297-33.838 38.155-53.286 53.937l-0.64 0.503c18.312 10.798 30.405 30.424 30.405 52.874 0 33.787-27.389 61.176-61.176 61.176-0.070 0-0.14 0-0.21 0h-19.794l57.378 87.011c1.988 2.976 3.172 6.635 3.172 10.571 0 10.604-8.596 19.2-19.2 19.2-0.001 0-0.002 0-0.003 0h-35.906c-0.935-0.016-2.039-0.026-3.144-0.026-32.506 0-63.116 8.116-89.915 22.433l1.027-0.501c-18.107 10.32-39.786 16.404-62.887 16.404-35.819 0-68.221-14.628-91.559-38.236l-0.033-0.033-22.363-22.426c-3.464-3.474-5.607-8.268-5.607-13.562 0-3.928 1.179-7.581 3.203-10.623l-0.044 0.071 46.26-70.281h-8.687c-0.060 0-0.13 0-0.201 0-33.786 0-61.175-27.389-61.175-61.175 0-22.46 12.104-42.093 30.145-52.732l0.286-0.156c-82.17-68.962-134.98-170.592-138.282-284.633l-0.013-0.555v-94.803c0.097-86.877 70.499-157.279 157.366-157.376h271.821c86.877 0.097 157.279 70.499 157.376 157.366v94.813c-2.289 87.872-33.701 167.99-84.889 231.499l0.576-0.738zM634.614 210.052l-30.917-26.448-24.052 26.437c-19.011-10.603-41.705-16.845-65.857-16.845-0.636 0-1.271 0.004-1.906 0.013l0.096-0.001c-0.83-0.019-1.808-0.030-2.788-0.030-72.283 0-130.88 58.597-130.88 130.88 0 2.182 0.053 4.351 0.159 6.506l-0.012-0.304c-0.094 1.851-0.147 4.020-0.147 6.201 0 72.283 58.597 130.88 130.88 130.88 0.98 0 1.958-0.011 2.933-0.032l-0.145 0.003c0.837 0.019 1.824 0.030 2.813 0.030 72.292 0 130.896-58.604 130.896-130.896 0-2.176-0.053-4.339-0.158-6.488l0.012 0.303c0.018-0.842 0.028-1.835 0.028-2.83 0-35.182-12.923-67.346-34.282-92.003l0.149 0.176z" />
<glyph unicode="&#xe91c;" glyph-name="Billing-GTM" d="M720.969 527.74c-16.143 20.297-33.838 38.155-53.286 53.937l-0.64 0.503c18.312 10.798 30.405 30.424 30.405 52.874 0 33.787-27.389 61.176-61.176 61.176-0.070 0-0.14 0-0.21 0h-19.794l57.378 87.011c1.988 2.976 3.172 6.635 3.172 10.571 0 10.604-8.596 19.2-19.2 19.2-0.001 0-0.002 0-0.003 0h-35.906c-0.935-0.016-2.039-0.026-3.144-0.026-32.506 0-63.116 8.116-89.915 22.433l1.027-0.501c-18.107 10.32-39.786 16.404-62.887 16.404-35.819 0-68.221-14.628-91.559-38.236l-0.033-0.033-22.364-22.426c-3.464-3.474-5.607-8.268-5.607-13.562 0-3.928 1.179-7.581 3.203-10.623l-0.044 0.071 46.26-70.281h-8.687c-0.060 0-0.13 0-0.201 0-33.786 0-61.175-27.389-61.175-61.175 0-22.46 12.104-42.093 30.145-52.732l0.286-0.156c-82.17-68.962-134.98-170.592-138.282-284.633l-0.013-0.555v-94.803c0.097-86.877 70.499-157.279 157.366-157.376h271.821c86.877 0.097 157.279 70.499 157.376 157.366v94.813c-2.289 87.872-33.701 167.99-84.889 231.499l0.576-0.738zM391.052 774.573l11.323 11.354c16.432 16.634 39.241 26.936 64.456 26.936 16.268 0 31.535-4.288 44.731-11.796l-0.447 0.234c31.125-16.822 68.13-26.71 107.445-26.71 1.107 0 2.212 0.008 3.316 0.023l-0.167-0.002h0.25l-51.541-78.167h-127.948zM387.959 657.833h248.114c0.021 0 0.045 0 0.070 0 12.688 0 22.974-10.286 22.974-22.974s-10.286-22.974-22.974-22.974c-0.025 0-0.049 0-0.074 0h-248.111c-0.021 0-0.045 0-0.070 0-12.688 0-22.974 10.286-22.974 22.974s10.286 22.974 22.974 22.974c0.025 0 0.049 0 0.074 0h-0.004zM766.885 202.176c-0.077-65.679-53.3-118.901-118.971-118.979h-271.82c-65.679 0.078-118.901 53.3-118.979 118.972v94.811c2.752 114.288 61.575 214.269 149.916 273.795l1.209 0.768c0.775 0.611 1.465 1.249 2.103 1.936l0.011 0.012h203.796c0.636-0.687 1.312-1.315 2.032-1.888l0.037-0.028c29.14-18.508 53.841-40.994 74.174-67.055l0.483-0.643c45.51-56.246 73.811-128.066 76-206.415l0.011-0.481zM511.979 467.312c-0.83 0.019-1.807 0.030-2.787 0.030-72.283 0-130.88-58.597-130.88-130.88 0-2.181 0.053-4.35 0.159-6.504l-0.012 0.304c-0.094-1.852-0.147-4.021-0.147-6.203 0-72.283 58.597-130.88 130.88-130.88 0.98 0 1.958 0.011 2.933 0.032l-0.145-0.003c0.538-0.008 1.173-0.012 1.809-0.012 24.152 0 46.846 6.243 66.557 17.202l-0.7-0.357 24.052-26.437 30.917 26.448-23.177 25.552c21.209 24.481 34.133 56.644 34.133 91.826 0 0.995-0.010 1.987-0.031 2.978l0.002-0.148c0.093 1.847 0.146 4.010 0.146 6.186 0 72.292-58.604 130.896-130.896 130.896-0.989 0-1.976-0.011-2.96-0.033l0.147 0.003zM581.895 268.281l-33.813 37.646-31.333-26.438 34.167-37.625c-11.2-5.464-24.368-8.659-38.282-8.659-0.231 0-0.461 0.001-0.691 0.003h0.035c-51.854 0-88.073 39.906-88.073 97.052 0 58.052 35.396 97.052 88.073 97.052 51.885 0 88.115-39.906 88.115-97.052 0.016-0.68 0.024-1.48 0.024-2.283 0-22.269-6.809-42.948-18.459-60.068l0.239 0.371z" />
<glyph unicode="&#xe91d;" glyph-name="Billing-Pounds_Fill" d="M720.969 527.74c-16.143 20.297-33.838 38.155-53.286 53.937l-0.64 0.503c18.312 10.798 30.405 30.424 30.405 52.874 0 33.787-27.389 61.176-61.176 61.176-0.070 0-0.14 0-0.21 0h-19.794l57.378 87.011c1.988 2.976 3.172 6.635 3.172 10.571 0 10.604-8.596 19.2-19.2 19.2-0.001 0-0.002 0-0.003 0h-35.906c-0.935-0.016-2.039-0.026-3.144-0.026-32.506 0-63.116 8.116-89.915 22.433l1.027-0.501c-18.107 10.32-39.786 16.404-62.887 16.404-35.819 0-68.221-14.628-91.559-38.236l-0.033-0.033-22.364-22.426c-3.464-3.474-5.607-8.268-5.607-13.562 0-3.928 1.179-7.581 3.203-10.623l-0.044 0.071 46.26-70.281h-8.687c-0.060 0-0.13 0-0.201 0-33.786 0-61.175-27.389-61.175-61.175 0-22.46 12.104-42.093 30.145-52.732l0.286-0.156c-82.17-68.962-134.98-170.592-138.282-284.633l-0.013-0.555v-94.803c0.097-86.877 70.499-157.279 157.366-157.376h271.821c86.877 0.097 157.279 70.499 157.376 157.366v94.813c-2.289 87.872-33.701 167.99-84.889 231.499l0.576-0.738zM607.969 194.812c-12.998-8.103-28.78-12.908-45.684-12.908-1.265 0-2.524 0.027-3.776 0.080l0.179-0.006c-15.505 0-30.108 3.862-42.899 10.677l0.493-0.24-0.864 0.385c-8.857 4.622-19.315 7.415-30.405 7.614l-0.064 0.001c-13.15-0.908-25.269-4.53-36.062-10.307l0.478 0.234c-1.913-0.915-4.157-1.45-6.527-1.45-6.039 0-11.266 3.471-13.797 8.527l-0.040 0.089-3.209 6.594c-0.981 1.963-1.555 4.277-1.555 6.725 0 5.758 3.177 10.774 7.873 13.392l0.078 0.040c21.36 8.717 36.695 28.154 39.409 51.444l0.028 0.296c0.002 0.172 0.004 0.375 0.004 0.579 0 7.463-1.735 14.521-4.824 20.791l0.123-0.276h-42.197c-8.489 0-15.37 6.881-15.37 15.37s6.881 15.37 15.37 15.37h20.49c-14.623 14.895-23.924 35.059-24.797 57.387l-0.005 0.165c3.598 47.551 43.064 84.769 91.223 84.769 1.992 0 3.969-0.064 5.93-0.189l-0.267 0.014c1.537 0.087 3.336 0.136 5.147 0.136 30.405 0 57.555-13.934 75.414-35.765l0.138-0.174c1.939-2.55 3.106-5.778 3.106-9.279 0-5.579-2.964-10.466-7.402-13.172l-0.068-0.038-10.563-6.344c-2.253-1.372-4.978-2.183-7.892-2.183-5.138 0-9.686 2.523-12.473 6.398l-0.031 0.046c-9.408 12.779-24.375 20.992-41.263 21.041h-0.008c-1.157 0.1-2.503 0.157-3.862 0.157-25.803 0-46.807-20.547-47.543-46.172l-0.002-0.068c0.996-18.763 8.878-35.514 21.142-47.924l-0.007 0.007 6.615-8.812h47c8.489 0 15.37-6.881 15.37-15.37s-6.881-15.37-15.37-15.37h-32.458c0.667-3.601 1.075-7.772 1.125-12.028v-0.045c-0.184-18.554-8.494-35.131-21.534-46.37l-0.081-0.068c3.093 0.459 6.678 0.731 10.323 0.75h0.021c11.842-0.267 22.904-3.355 32.62-8.615l-0.38 0.188c7.505-4.113 16.374-6.704 25.807-7.131l0.131-0.005c0.016 0 0.035 0 0.054 0 9.667 0 18.73 2.586 26.534 7.105l-0.255-0.136c2.166 1.294 4.777 2.059 7.566 2.059 1.533 0 3.012-0.231 4.404-0.66l-0.106 0.028c4.123-1.242 7.449-4.036 9.366-7.686l0.041-0.085 5.052-9.854c1.078-2.045 1.711-4.468 1.711-7.040 0-5.254-2.642-9.891-6.669-12.655l-0.052-0.034z" />
<glyph unicode="&#xe91e;" glyph-name="Billing-Pounds" d="M720.969 527.74c-16.143 20.297-33.838 38.155-53.286 53.937l-0.64 0.503c18.312 10.798 30.405 30.424 30.405 52.874 0 33.787-27.389 61.176-61.176 61.176-0.070 0-0.14 0-0.21 0h-19.794l57.378 87.011c1.988 2.976 3.172 6.635 3.172 10.571 0 10.604-8.596 19.2-19.2 19.2-0.001 0-0.002 0-0.003 0h-35.906c-0.935-0.016-2.039-0.026-3.144-0.026-32.506 0-63.116 8.116-89.915 22.433l1.027-0.501c-18.107 10.32-39.786 16.404-62.887 16.404-35.819 0-68.221-14.628-91.559-38.236l-0.033-0.033-22.364-22.426c-3.464-3.474-5.607-8.268-5.607-13.562 0-3.928 1.179-7.581 3.203-10.623l-0.044 0.071 46.26-70.281h-8.687c-0.060 0-0.13 0-0.201 0-33.786 0-61.175-27.389-61.175-61.175 0-22.46 12.104-42.093 30.145-52.732l0.286-0.156c-82.17-68.962-134.98-170.592-138.282-284.633l-0.013-0.555v-94.803c0.097-86.877 70.499-157.279 157.366-157.376h271.821c86.877 0.097 157.279 70.499 157.376 157.366v94.813c-2.289 87.872-33.701 167.99-84.889 231.499l0.576-0.738zM391.052 774.573l11.323 11.354c16.432 16.634 39.241 26.936 64.456 26.936 16.268 0 31.535-4.288 44.731-11.796l-0.447 0.234c31.125-16.822 68.13-26.71 107.445-26.71 1.107 0 2.212 0.008 3.316 0.023l-0.167-0.002h0.25l-51.541-78.167h-127.948zM387.959 657.833h248.114c0.021 0 0.045 0 0.070 0 12.688 0 22.974-10.286 22.974-22.974s-10.286-22.974-22.974-22.974c-0.025 0-0.049 0-0.074 0h-248.111c-0.021 0-0.045 0-0.070 0-12.688 0-22.974 10.286-22.974 22.974s10.286 22.974 22.974 22.974c0.025 0 0.049 0 0.074 0h-0.004zM766.885 202.176c-0.077-65.679-53.3-118.901-118.971-118.979h-271.82c-65.679 0.078-118.901 53.3-118.979 118.972v94.811c2.752 114.288 61.575 214.269 149.916 273.795l1.209 0.768c0.775 0.611 1.465 1.249 2.103 1.936l0.011 0.012h203.796c0.636-0.687 1.312-1.315 2.032-1.888l0.037-0.028c29.14-18.508 53.841-40.994 74.174-67.055l0.483-0.643c45.51-56.246 73.811-128.066 76-206.415l0.011-0.481zM607.927 224.395c-1.957 3.735-5.284 6.529-9.296 7.742l-0.11 0.029c-1.286 0.401-2.765 0.632-4.298 0.632-2.79 0-5.401-0.765-7.635-2.097l0.068 0.038c-7.55-4.382-16.612-6.969-26.279-6.969-0.019 0-0.038 0-0.057 0h0.003c-9.564 0.431-18.433 3.022-26.253 7.293l0.316-0.158c-9.335 5.071-20.398 8.159-32.158 8.425l-0.082 0.001c-3.666-0.019-7.251-0.291-10.759-0.799l0.415 0.049c13.121 11.306 21.43 27.883 21.614 46.406v0.032c-0.051 4.301-0.458 8.472-1.194 12.527l0.068-0.454h32.458c8.489 0 15.37 6.881 15.37 15.37s-6.881 15.37-15.37 15.37h-47.001l-6.615 8.812c-12.257 12.403-20.139 29.153-21.128 47.733l-0.008 0.184c0.737 25.693 21.741 46.24 47.544 46.24 1.359 0 2.706-0.057 4.036-0.169l-0.174 0.012c16.896-0.050 31.863-8.263 41.171-20.9l0.099-0.141c2.818-3.921 7.366-6.444 12.504-6.444 2.914 0 5.639 0.812 7.96 2.222l-0.068-0.038 10.563 6.344c4.507 2.745 7.47 7.631 7.47 13.21 0 3.501-1.167 6.729-3.133 9.317l0.028-0.038c-17.996 22.004-45.146 35.938-75.551 35.938-1.81 0-3.609-0.049-5.395-0.147l0.249 0.011c-1.693 0.112-3.67 0.175-5.663 0.175-48.159 0-87.624-37.218-91.204-84.46l-0.019-0.308c0.878-22.493 10.179-42.657 24.815-57.565l-0.013 0.013h-20.49c-8.489 0-15.37-6.881-15.37-15.37s6.881-15.37 15.37-15.37h42.197c2.966-5.994 4.701-13.052 4.701-20.515 0-0.204-0.001-0.407-0.004-0.61v0.031c-2.742-23.586-18.078-43.023-39.014-51.586l-0.423-0.153c-4.774-2.657-7.951-7.674-7.951-13.432 0-2.448 0.574-4.761 1.595-6.814l-0.040 0.089 3.209-6.594c2.572-5.145 7.8-8.615 13.839-8.615 2.369 0 4.613 0.534 6.619 1.489l-0.093-0.040c10.315 5.543 22.434 9.165 35.305 10.057l0.279 0.016c11.154-0.2 21.612-2.992 30.855-7.797l-0.386 0.183 0.864-0.385c12.299-6.575 26.902-10.437 42.406-10.438v0c1.073-0.047 2.332-0.074 3.597-0.074 16.904 0 32.686 4.804 46.054 13.122l-0.37-0.215c4.080 2.798 6.722 7.435 6.722 12.689 0 2.572-0.633 4.996-1.752 7.125l0.040-0.084z" />
<glyph unicode="&#xe91f;" glyph-name="Biometric" d="M449.896 413.562c-0.75 5.623-3.694 10.443-7.928 13.65l-0.051 0.037c-3.419 2.612-7.754 4.185-12.455 4.185-11.393 0-20.629-9.236-20.629-20.629 0-0.982 0.069-1.948 0.201-2.893l-0.013 0.109c1.611-11.42 2.531-24.611 2.531-38.017 0-82.598-34.914-157.042-90.789-209.378l-0.159-0.147c-4.029-3.776-6.54-9.131-6.54-15.072 0-11.397 9.239-20.637 20.637-20.637 0.002 0 0.005 0 0.007 0v0c0.008 0 0.018 0 0.028 0 5.446 0 10.396 2.126 14.065 5.593l-0.010-0.009c64.082 60.024 104.012 145.163 104.012 239.628 0 15.368-1.057 30.489-3.102 45.295l0.194-1.714zM274.521 399.979l-0.479 1.604c-2.196 10.707-3.74 23.314-4.295 36.178l-0.017 0.51c-0.456 11.028-9.507 19.795-20.605 19.795-11.389 0-20.621-9.233-20.621-20.621 0-0.303 0.007-0.604 0.019-0.904l-0.001 0.043c0.719-16.829 2.808-32.72 6.171-48.135l-0.337 1.844c1.184-6.1 1.862-13.115 1.862-20.288 0-34.002-15.223-64.448-39.226-84.894l-0.157-0.13c-4.47-3.81-7.287-9.446-7.287-15.74 0-11.4 9.242-20.642 20.642-20.642 5.106 0 9.78 1.854 13.384 4.926l-0.029-0.024c33.103 28.169 53.965 69.866 53.965 116.436 0 10.632-1.087 21.011-3.157 31.030l0.17-0.987zM337.25 309.917h-0.021c-2.215 0.885-4.782 1.399-7.469 1.399-8.711 0-16.162-5.397-19.191-13.030l-0.049-0.14c-13.044-32.959-33.429-60.609-59.244-81.915l-0.34-0.273c-4.649-3.811-7.592-9.553-7.592-15.983 0-11.389 9.232-20.621 20.621-20.621 0.012 0 0.023 0 0.035 0h-0.002c4.979 0.015 9.544 1.774 13.121 4.696l-0.037-0.030c31.562 26.046 56.166 59.413 71.343 97.554l0.574 1.634c0.878 2.209 1.387 4.769 1.387 7.448 0 8.707-5.379 16.158-12.996 19.211l-0.139 0.049zM228.813 633.958c6.823 0.003 12.872 3.317 16.627 8.422l0.040 0.057c60.721 82.456 157.424 135.362 266.484 135.362 52.839 0 102.777-12.419 147.055-34.497l-1.913 0.864c2.656-1.335 5.789-2.117 9.104-2.117 11.398 0 20.638 9.24 20.638 20.638 0 8.083-4.647 15.080-11.414 18.467l-0.119 0.054c-47.673 23.884-103.871 37.866-163.334 37.866-122.696 0-231.489-59.529-299.072-151.28l-0.719-1.023c-2.491-3.368-3.988-7.604-3.988-12.189 0-11.386 9.227-20.617 20.612-20.623h0.001zM191.875 368.542c-1.146 4.667-2.208 9.354-3.146 14.104l-0.333 0.771c-4.159 19.55-6.54 42.011-6.54 65.029 0 54.628 13.413 106.123 37.126 151.371l-0.857-1.796c1.476 2.77 2.343 6.058 2.343 9.549 0 11.393-9.236 20.629-20.629 20.629-8.007 0-14.949-4.562-18.368-11.229l-0.054-0.116c-25.672-48.801-40.738-106.635-40.738-167.988 0-26.786 2.872-52.901 8.324-78.054l-0.439 2.417c1-4.896 2.063-9.729 3.229-14.542 2.276-9.074 10.361-15.688 19.991-15.688 0.018 0 0.036 0 0.054 0h-0.003c1.753 0.002 3.455 0.215 5.084 0.614l-0.147-0.030c9.081 2.316 15.689 10.422 15.689 20.072 0 1.734-0.213 3.419-0.615 5.028l0.030-0.142zM455.896 725.896c-114.829-23.238-203.31-113.753-223.236-227.833l-0.244-1.688c-0.194-1.062-0.304-2.284-0.304-3.531 0-11.398 9.24-20.638 20.638-20.638 10.15 0 18.589 7.328 20.315 16.981l0.019 0.125c20.52 114.85 119.641 200.9 238.861 200.9 117.305 0 215.152-83.309 237.604-193.989l0.264-1.557c2.167-10.833 4.021-21.542 5.542-31.875 1.542-10.014 10.076-17.599 20.391-17.646h0.005l3 0.25c10.030 1.495 17.636 10.048 17.636 20.378 0 1.057-0.080 2.096-0.233 3.111l0.014-0.114c-1.667 11.375-3.729 23.188-6.438 36.333-27.796 130.118-141.789 226.281-278.242 226.281-19.672 0-38.878-1.999-57.424-5.804l1.833 0.314zM421.729 445.583c1.272-0.279 2.733-0.439 4.232-0.439 9.906 0 18.18 6.988 20.161 16.304l0.024 0.135c6.622 30.75 33.582 53.46 65.846 53.46 31.558 0 58.041-21.727 65.307-51.039l0.097-0.463 0.333-2.438c5.74-27.13 9.087-58.346 9.208-90.323v-0.093c0.006-11.392 9.243-20.625 20.636-20.625 11.397 0 20.636 9.239 20.636 20.636 0 0.033 0 0.066 0 0.098v-0.005c-0.066 33.871-3.545 66.89-10.11 98.782l0.547-3.178-0.354 2.896c-10.339 50.003-54.014 87.056-106.343 87.056-52.075 0-95.58-36.693-106.070-85.636l-0.128-0.712c-0.276-1.267-0.435-2.722-0.435-4.214 0-9.902 6.974-18.176 16.278-20.178l0.136-0.024zM532.271 451.937c-1.966 9.519-10.279 16.572-20.24 16.572-11.402 0-20.645-9.243-20.645-20.645 0-1.441 0.148-2.848 0.429-4.207l-0.023 0.134c4.828-22.463 7.594-48.269 7.594-74.721 0-94.696-35.438-181.115-93.777-246.718l0.329 0.377c-3.179-3.612-5.12-8.382-5.12-13.606 0-11.398 9.24-20.638 20.638-20.638 6.167 0 11.701 2.705 15.483 6.992l0.019 0.022c64.396 72.426 103.734 168.376 103.734 273.514 0 29.356-3.067 57.995-8.897 85.615l0.476-2.692zM876.042 521.271l-0.437 1.021c-19.823 95.421-74.2 175.605-149.174 228.578l-1.159 0.777c-3.279 2.372-7.381 3.794-11.815 3.794-1.258 0-2.49-0.114-3.684-0.334l0.124 0.019c-9.801-1.71-17.157-10.155-17.157-20.317 0-6.962 3.452-13.117 8.738-16.848l0.065-0.043c85.482-60.574 140.6-159.112 140.6-270.523 0-2.182-0.021-4.359-0.063-6.532l0.005 0.326c-0.002-0.104-0.003-0.227-0.003-0.35 0-11.404 9.245-20.649 20.649-20.649 11.256 0 20.409 9.007 20.645 20.207v0.022c0.036 1.949 0.057 4.249 0.057 6.553 0 26.296-2.691 51.963-7.812 76.742l0.422-2.441zM704.229 486.208l-0.063 0.396c-18.675 90.333-97.575 157.27-192.109 157.27-108.23 0-195.968-87.738-195.968-195.968 0-14.436 1.561-28.508 4.523-42.055l-0.238 1.296c2.264-11.244 3.56-24.169 3.56-37.397 0-7.419-0.408-14.743-1.202-21.95l0.080 0.889c-0.076-0.664-0.119-1.433-0.119-2.212 0-11.392 9.235-20.628 20.628-20.628 10.623 0 19.37 8.030 20.504 18.351l0.008 0.092c0.848 7.523 1.332 16.244 1.332 25.077 0 17.663-1.935 34.874-5.604 51.433l0.293-1.573c-1.642 8.479-2.581 18.23-2.581 28.2 0 74.724 52.764 137.124 123.068 151.975l1.014 0.179c9.207 1.947 19.786 3.061 30.625 3.061 74.658 0 136.966-52.879 151.515-123.226l0.173-1.001c6.97-32.744 10.962-70.364 10.962-108.916 0-31.343-2.638-62.070-7.704-91.971l0.451 3.221c-0.175-1.011-0.276-2.174-0.276-3.362 0-10.238 7.459-18.735 17.239-20.351l0.12-0.016 3.271-0.271c0.016 0 0.035 0 0.054 0 10.208 0 18.678 7.44 20.284 17.193l0.016 0.119c4.964 28.701 7.802 61.755 7.802 95.472 0 41.049-4.206 81.116-12.211 119.794l0.659-3.807zM795.312 426.041c-3.638 3.208-8.445 5.165-13.708 5.165-0.454 0-0.905-0.015-1.353-0.043l0.061 0.003h-0.021c-10.824-0.72-19.331-9.676-19.331-20.619 0-0.449 0.014-0.895 0.043-1.337l-0.003 0.060c0.807-11.965 1.268-25.937 1.268-40.015 0-57.989-7.808-114.155-22.429-167.504l1.036 4.436c-0.431-1.577-0.679-3.387-0.679-5.255 0-9.529 6.45-17.552 15.222-19.94l0.145-0.034c1.577-0.437 3.391-0.694 5.263-0.708h0.008c9.505 0.033 17.499 6.464 19.903 15.209l0.034 0.145c14.458 52.074 22.767 111.871 22.767 173.608 0 14.995-0.49 29.876-1.456 44.628l0.105-2.006c-0.325 5.671-2.908 10.681-6.854 14.19l-0.021 0.018zM681.25 242.75c-1.607 0.451-3.453 0.71-5.359 0.71-9.487 0-17.474-6.418-19.857-15.149l-0.034-0.144c-10.278-37.938-22.841-70.687-38.253-101.774l1.44 3.211c-1.314-2.637-2.083-5.745-2.083-9.031 0-11.39 9.234-20.624 20.624-20.624 8.104 0 15.116 4.674 18.488 11.473l0.054 0.12c15.029 29.967 28.544 65.173 38.628 101.801l0.976 4.157c0.444 1.597 0.699 3.43 0.699 5.323 0 9.505-6.431 17.507-15.179 19.894l-0.145 0.034zM606.833 335.646c-0.698 0.084-1.505 0.131-2.324 0.131-10.574 0-19.292-7.951-20.5-18.201l-0.009-0.097c-9.341-78.729-37.116-149.535-78.865-209.943l1.011 1.547c-2.255-3.258-3.603-7.295-3.603-11.646 0-11.39 9.234-20.624 20.624-20.624 7.039 0 13.254 3.526 16.976 8.909l0.045 0.069c44.392 64.118 74.651 141.254 84.581 224.63l0.232 2.391c0.082 0.692 0.129 1.494 0.129 2.307 0 10.578-7.948 19.299-18.198 20.516l-0.098 0.009z" />
<glyph unicode="&#xe920;" glyph-name="Bold" d="M649.934 449.775c43.171 34.426 70.602 87.010 70.629 146.002v31.306c-0.121 103.104-83.668 186.655-186.759 186.781h-255.908c-13.55 0-24.535-10.982-24.541-24.531v-682.668c0.006-13.549 10.991-24.531 24.542-24.531h319.166c95.822 0.113 173.47 77.761 173.583 173.573v28.772c-0.112 76.931-50.172 142.141-119.483 164.945l-1.229 0.35zM671.479 627.083v-31.302c-0.086-76.012-61.677-137.61-137.678-137.708h-231.363v306.729h231.354c76.014-0.1 137.606-61.703 137.688-137.711v-0.008zM721.562 255.719c-0.077-68.733-55.769-124.432-124.491-124.521h-294.634v277.812h294.625c68.734-0.090 124.427-55.795 124.5-124.524v-0.007z" />
<glyph unicode="&#xe921;" glyph-name="Bullet-List" d="M291.75 652.032h598.917c11.782 0 21.333 9.551 21.333 21.333s-9.551 21.333-21.333 21.333v0h-598.917c-11.782 0-21.333-9.551-21.333-21.333s9.551-21.333 21.333-21.333v0zM147.605 705.365h-3.605c-17.673 0-32-14.327-32-32s14.327-32 32-32v0h3.605c17.673 0 32 14.327 32 32s-14.327 32-32 32v0zM890.667 469.333h-598.917c-11.782 0-21.333-9.551-21.333-21.333s9.551-21.333 21.333-21.333v0h598.917c11.782 0 21.333 9.551 21.333 21.333s-9.551 21.333-21.333 21.333v0zM147.605 480h-3.605c-17.673 0-32-14.327-32-32s14.327-32 32-32v0h3.605c17.673 0 32 14.327 32 32s-14.327 32-32 32v0zM890.667 243.968h-598.917c-11.782 0-21.333-9.551-21.333-21.333s9.551-21.333 21.333-21.333v0h598.917c11.782 0 21.333 9.551 21.333 21.333s-9.551 21.333-21.333 21.333v0zM147.605 254.635h-3.605c-17.673 0-32-14.327-32-32s14.327-32 32-32v0h3.605c17.673 0 32 14.327 32 32s-14.327 32-32 32v0z" />
<glyph unicode="&#xe922;" glyph-name="Calendar_Fill" d="M824.96 736.64c-35.886 33.319-84.129 53.764-137.147 53.764-0.459 0-0.918-0.002-1.377-0.005h0.064v41.6c0 10.608-8.6 19.208-19.208 19.208s-19.208-8.6-19.208-19.208v0-41.387h-271.813v41.387c-0.036 10.581-8.622 19.145-19.208 19.145s-19.172-8.563-19.208-19.141v-41.609c-119.641-4.504-190.654-77.456-190.654-197.328v-26.24h729.6v26.24c0.168 3.040 0.263 6.597 0.263 10.177 0 51.535-19.807 98.444-52.224 133.529l0.121-0.132zM147.2 245.547c0-125.653 75.733-200.747 202.453-200.747h324.693c126.72 0 202.453 74.027 202.453 197.76v285.867h-729.6zM701.653 431.573h0.64c16.404-0.12 29.656-13.446 29.656-29.867 0-16.496-13.372-29.868-29.868-29.868s-29.868 13.372-29.868 29.868c0 0 0 0 0 0.001v0c-0.002 0.121-0.003 0.265-0.003 0.408 0 16.264 13.18 29.449 29.442 29.458h0.001zM701.653 239.573h0.64c16.404-0.12 29.656-13.446 29.656-29.867 0-16.496-13.372-29.868-29.868-29.868s-29.868 13.372-29.868 29.868c0 0 0 0 0 0.001v0c-0.002 0.121-0.003 0.265-0.003 0.408 0 16.264 13.18 29.449 29.442 29.458h0.001zM511.787 431.573h0.64c16.495 0 29.867-13.372 29.867-29.867s-13.372-29.867-29.867-29.867v0c-16.525 0.033-29.926 13.359-30.080 29.852v0.015c-0.002 0.121-0.003 0.265-0.003 0.408 0 16.264 13.18 29.449 29.442 29.458h0.001zM511.787 239.573h0.64c16.495 0 29.867-13.372 29.867-29.867s-13.372-29.867-29.867-29.867v0c-16.525 0.033-29.926 13.359-30.080 29.852v0.015c-0.002 0.122-0.003 0.265-0.003 0.409 0 16.264 13.18 29.449 29.442 29.458h0.001zM321.92 431.573h0.64c16.495 0 29.867-13.372 29.867-29.867s-13.372-29.867-29.867-29.867v0c-16.525 0.032-29.927 13.359-30.080 29.852v0.015c-0.002 0.121-0.003 0.265-0.003 0.408 0 16.264 13.18 29.45 29.442 29.459h0.001zM321.92 239.573h0.64c16.495 0 29.867-13.372 29.867-29.867s-13.372-29.867-29.867-29.867v0c-16.525 0.032-29.927 13.359-30.080 29.852v0.015c-0.002 0.122-0.003 0.265-0.003 0.409 0 16.264 13.18 29.45 29.442 29.459h0.001z" />
<glyph unicode="&#xe923;" glyph-name="Calendar" d="M824.875 736.583c-35.782 33.196-83.871 53.563-136.717 53.563-0.583 0-1.166-0.002-1.747-0.007l0.089 0.001v41.861c0 10.608-8.6 19.208-19.208 19.208s-19.208-8.6-19.208-19.208v0-41.417h-271.812v41.417c-0.036 10.581-8.622 19.145-19.208 19.145s-19.172-8.563-19.208-19.141v-41.856c-119.572-4.511-190.667-77.318-190.667-197.064v-347.52c0-125.708 75.667-200.771 202.417-200.771h324.791c126.75 0 202.417 73.979 202.417 197.854v350.374c0.163 2.997 0.256 6.504 0.256 10.033 0 51.593-19.843 98.552-52.313 133.66l0.12-0.131zM838.396 242.645c0-102.812-58.229-159.437-164-159.437h-324.791c-104.229 0-164 59.167-164 162.354v282.917h652.791zM838.396 566.895h-652.791v26.188c0 98.675 54.009 154.555 152.25 158.681v-46.139c0.036-10.581 8.622-19.145 19.208-19.145s19.172 8.563 19.208 19.141v46.545h271.812v-46.542c0-10.608 8.6-19.208 19.208-19.208s19.208 8.6 19.208 19.208v0 46.119c0.478 0.005 1.043 0.008 1.608 0.008 42.247 0 80.742-16.062 109.712-42.413l-0.132 0.119c25.454-27.89 41.045-65.163 41.045-106.077 0-3.623-0.122-7.218-0.363-10.78l0.026 0.482zM322.645 371.917c16.465 0.045 29.795 13.404 29.795 29.875s-13.33 29.83-29.791 29.875h-0.671c-16.322-0.028-29.543-13.266-29.543-29.592 0-0.099 0-0.199 0.001-0.298v0.015c0.161-16.534 13.602-29.875 30.16-29.875 0.017 0 0.034 0 0.051 0h-0.003zM512.52 371.917c16.465 0.045 29.795 13.404 29.795 29.875s-13.33 29.83-29.791 29.875h-0.671c-16.322-0.028-29.542-13.266-29.542-29.592 0-0.099 0-0.199 0.001-0.298v0.015c0.161-16.534 13.602-29.875 30.16-29.875 0.017 0 0.034 0 0.051 0h-0.003zM702.395 371.917c0.024 0 0.052 0 0.080 0 16.5 0 29.875 13.376 29.875 29.875s-13.376 29.875-29.875 29.875c-0.028 0-0.056 0-0.084 0h-0.663c-16.322-0.028-29.543-13.266-29.543-29.592 0-0.1 0-0.199 0.001-0.299v0.015c0.162-16.534 13.603-29.875 30.159-29.875 0.017 0 0.035 0 0.052 0h-0.003zM322.645 179.917c16.465 0.045 29.795 13.404 29.795 29.875s-13.33 29.83-29.791 29.875h-0.671c-16.322-0.028-29.543-13.266-29.543-29.592 0-0.099 0-0.199 0.001-0.298v0.015c0.161-16.534 13.602-29.875 30.16-29.875 0.017 0 0.034 0 0.051 0h-0.003zM512.52 179.917c16.465 0.045 29.795 13.404 29.795 29.875s-13.33 29.83-29.791 29.875h-0.671c-16.322-0.028-29.542-13.266-29.542-29.592 0-0.099 0-0.199 0.001-0.298v0.015c0.161-16.534 13.602-29.875 30.16-29.875 0.017 0 0.034 0 0.051 0h-0.003zM702.395 179.917c0.024 0 0.052 0 0.080 0 16.5 0 29.875 13.376 29.875 29.875s-13.376 29.875-29.875 29.875c-0.028 0-0.056 0-0.084 0h-0.663c-16.322-0.028-29.543-13.266-29.543-29.592 0-0.1 0-0.199 0.001-0.299v0.015c0.162-16.534 13.603-29.875 30.159-29.875 0.017 0 0.035 0 0.052 0h-0.003z" />
<glyph unicode="&#xe924;" glyph-name="Call-2_Fill" d="M512 851.198c-222.68 0-403.198-180.518-403.198-403.198s180.518-403.198 403.198-403.198c222.68 0 403.198 180.518 403.198 403.198v0c-0.261 222.575-180.623 402.937-403.173 403.198h-0.025zM512 83.198c-201.475 0-364.802 163.327-364.802 364.802s163.327 364.802 364.802 364.802c201.475 0 364.802-163.327 364.802-364.802v0c-0.232-201.381-163.421-364.57-364.78-364.802h-0.022zM656.375 412.708c-1.884 1.032-4.080 1.773-6.411 2.093l-0.1 0.011c-2.805 0.406-6.043 0.639-9.336 0.639-15.273 0-29.38-4.993-40.776-13.437l0.185 0.131c-2.219-1.333-4.76-3-7.51-4.813-5.505-3.962-11.768-7.56-18.391-10.495l-0.672-0.266c-55.59 24.087-99.342 66.783-124.191 120.068l-0.621 1.484c3.112 7.395 6.682 13.754 10.867 19.646l-0.211-0.313c1.833 2.844 3.531 5.469 4.875 7.76 8.182 11.325 13.087 25.488 13.087 40.796 0 3.22-0.217 6.388-0.637 9.493l0.040-0.362c-0.317 2.357-1.013 4.49-2.030 6.429l0.051-0.106c-15.003 28.831-32.957 53.617-53.995 75.405l0.089-0.093c-9.901 10.812-23.511 18.085-38.801 19.797l-0.281 0.026c-49.031 1.813-92.594-61.062-92.573-61.052-14.073-19.541-25.781-54.063-1.927-106.896 40.729-100.188 193.042-251.917 295.073-294.594 16.763-8.628 36.479-13.979 57.373-14.692l0.232-0.006 1.292-0.010c0.129-0.001 0.283-0.001 0.436-0.001 17.42 0 33.565 5.463 46.814 14.768l-0.26-0.173c8.043 4.625 64.177 48.51 62.365 96.5-1.984 14.546-8.818 27.217-18.79 36.584l-0.032 0.030c-21.677 21.572-46.43 40.081-73.538 54.805l-1.692 0.841z" />
<glyph unicode="&#xe925;" glyph-name="Call-2" d="M512 851.198c-222.68 0-403.198-180.518-403.198-403.198s180.518-403.198 403.198-403.198c222.68 0 403.198 180.518 403.198 403.198v0c-0.261 222.575-180.623 402.937-403.173 403.198h-0.025zM512 83.198c-201.475 0-364.802 163.327-364.802 364.802s163.327 364.802 364.802 364.802c201.475 0 364.802-163.327 364.802-364.802v0c-0.232-201.381-163.421-364.57-364.78-364.802h-0.022zM656.375 412.708c-1.884 1.032-4.080 1.773-6.411 2.093l-0.1 0.011c-2.809 0.408-6.052 0.641-9.349 0.641-15.269 0-29.371-4.994-40.763-13.438l0.185 0.131c-2.219-1.333-4.76-3-7.51-4.813-5.505-3.962-11.768-7.56-18.391-10.495l-0.672-0.266c-55.59 24.087-99.342 66.783-124.191 120.068l-0.621 1.484c3.112 7.395 6.682 13.754 10.867 19.646l-0.211-0.313c1.833 2.844 3.531 5.469 4.875 7.76 8.182 11.325 13.087 25.488 13.087 40.796 0 3.22-0.217 6.388-0.637 9.493l0.040-0.362c-0.317 2.357-1.013 4.49-2.030 6.429l0.051-0.106c-15.003 28.831-32.957 53.617-53.995 75.405l0.089-0.093c-9.901 10.812-23.511 18.085-38.801 19.797l-0.281 0.026c-48.761 1.813-92.583-61.062-92.573-61.052-14.073-19.541-25.781-54.063-1.927-106.896 40.729-100.188 193.042-251.917 295.073-294.594 16.763-8.628 36.479-13.979 57.373-14.692l0.232-0.006 1.292-0.010c0.129-0.001 0.283-0.001 0.436-0.001 17.42 0 33.565 5.463 46.814 14.768l-0.26-0.173c8.043 4.625 64.177 48.51 62.365 96.5-1.984 14.546-8.818 27.217-18.79 36.584l-0.032 0.030c-21.677 21.572-46.43 40.081-73.538 54.805l-1.692 0.841zM667.292 256.188c-7.453-5.116-16.624-8.242-26.514-8.437l-0.049-0.001c-15.607 0.633-30.131 4.686-43.030 11.423l0.562-0.267c-94.271 39.489-238.5 183-275.865 274.875-13.323 29.531-14.073 52.854-1.437 70.479 7.104 11.51 37.958 44.135 56.719 44.135l0.594-0.010c5.767-0.835 10.754-3.674 14.33-7.774l0.024-0.028c17.752-18.341 33.084-39.187 45.378-61.917l0.737-1.489c0.013-0.334 0.020-0.726 0.020-1.12 0-7.144-2.346-13.739-6.309-19.059l0.060 0.085c-0.404-0.538-0.807-1.15-1.172-1.787l-0.046-0.088c-1.125-1.979-2.656-4.313-4.323-6.885-9.776-10.969-15.749-25.511-15.749-41.449 0-4.133 0.402-8.173 1.168-12.081l-0.065 0.395c29.843-66.009 82.493-117.321 147.675-144.708l1.846-0.688c18.115-6.604 37.531 6.135 51.687 15.469 2.51 1.646 4.792 3.167 6.729 4.292 0.732 0.431 1.347 0.844 1.938 1.288l-0.052-0.038c5.1 3.884 11.56 6.222 18.566 6.222 0.332 0 0.663-0.005 0.992-0.016l-0.048 0.001c24.209-13.542 45.051-29.375 63.412-47.693l-0.005 0.005c3.478-3.15 6.002-7.295 7.124-11.985l0.032-0.16c0.781-21.823-34.854-54.771-44.927-60.989z" />
<glyph unicode="&#xe926;" glyph-name="Call_Fill" d="M864.052 281.927c-38.16 36.299-80.997 68.277-127.359 94.795l-3.235 1.705c-1.595 0.911-3.444 1.628-5.403 2.050l-0.128 0.023c-3.907 0.578-8.416 0.908-13.002 0.908-20.743 0-39.909-6.75-55.423-18.173l0.258 0.182c-18.385-10.573-29.458-16.323-43.385-11.261-92.89 36.905-165.115 108.99-201.359 199.383l-0.849 2.399c-5.125 14.302 0.625 25.406 11.219 43.781 11.266 15.256 18.031 34.434 18.031 55.191 0 4.632-0.337 9.186-0.988 13.638l0.061-0.506c-0.447 2.072-1.159 3.906-2.113 5.586l0.051-0.097c-28.147 49.482-60.021 92.223-96.457 130.588l0.27-0.286c-12.774 13.816-30.117 23.242-49.616 25.87l-0.425 0.047c-58.448 2.677-129.646-78.771-142.187-98.563-29.083-40.094-29.177-92.687-0.552-155.656 66.355-162.364 319.677-415.635 483.312-483.624 25.204-12.911 54.843-20.894 86.242-21.909l0.331-0.008c0.573-0.010 1.249-0.016 1.926-0.016 24.996 0 48.124 7.997 66.966 21.572l-0.339-0.233c15.239 8.625 101.896 81.448 99.74 142.667-0.027 0.794-0.098 1.545-0.211 2.282l0.013-0.106c-2.942 19.038-12.113 35.54-25.329 47.721l-0.057 0.051zM609.489 818.167c-0.638 0.075-1.376 0.118-2.125 0.118-10.605 0-19.201-8.597-19.201-19.201 0-9.856 7.426-17.978 16.988-19.075l0.089-0.008c131.911-14.492 235.679-118.15 250.228-248.746l0.115-1.275c1.135-9.623 9.243-17.017 19.079-17.017 10.606 0 19.204 8.598 19.204 19.204 0 0.742-0.042 1.473-0.124 2.193l0.008-0.088c-16.66 149.733-134.482 267.43-282.825 283.767l-1.436 0.128zM721.396 528.042c1.777-8.906 9.524-15.527 18.821-15.542h0.002c1.307 0.004 2.581 0.136 3.812 0.386l-0.124-0.021c8.91 1.777 15.531 9.535 15.531 18.839 0 1.299-0.129 2.568-0.375 3.794l0.021-0.123c-14.746 75.080-72.971 133.301-146.871 147.848l-1.182 0.194c-1.102 0.225-2.37 0.353-3.667 0.353-10.602 0-19.197-8.595-19.197-19.197 0-9.305 6.62-17.064 15.408-18.823l0.123-0.020c59.685-11.724 105.969-58.005 117.544-116.748l0.154-0.94z" />
<glyph unicode="&#xe927;" glyph-name="Call" d="M864.052 281.927c-38.16 36.299-80.997 68.277-127.359 94.795l-3.235 1.705c-1.595 0.911-3.444 1.628-5.403 2.050l-0.128 0.023c-3.906 0.577-8.414 0.907-12.999 0.907-20.744 0-39.911-6.749-55.426-18.172l0.258 0.182c-18.375-10.573-29.479-16.323-43.385-11.261-92.89 36.905-165.115 108.99-201.359 199.383l-0.849 2.399c-5.125 14.302 0.625 25.406 11.219 43.781 11.266 15.256 18.031 34.434 18.031 55.191 0 4.632-0.337 9.186-0.988 13.638l0.061-0.506c-0.447 2.072-1.159 3.906-2.113 5.586l0.051-0.097c-28.147 49.482-60.021 92.223-96.457 130.588l0.27-0.286c-12.774 13.816-30.117 23.242-49.616 25.87l-0.425 0.047c-58.406 2.677-129.656-78.771-142.187-98.563-29.083-40.094-29.177-92.687-0.552-155.656 66.355-162.364 319.677-415.635 483.312-483.624 25.204-12.911 54.843-20.894 86.242-21.909l0.331-0.008c0.573-0.010 1.249-0.016 1.926-0.016 24.996 0 48.124 7.997 66.966 21.572l-0.339-0.233c15.239 8.625 101.896 81.448 99.74 142.667-0.027 0.794-0.098 1.545-0.211 2.282l0.013-0.106c-2.942 19.038-12.113 35.54-25.329 47.721l-0.057 0.051zM769.26 121.635c-29.594-21.198-68.281-20.177-119.031 3.406-157.312 65.385-399.76 307.708-463.52 463.687-23.208 51.093-24.292 89.813-3.302 118.344 0.344 0.479 0.677 0.969 0.979 1.469 12.395 20.583 72.292 81.073 104.989 81.073l1.063-0.021c10.265-1.643 19.139-6.665 25.643-13.868l0.034-0.038c33.427-35.171 62.98-74.566 87.638-117.149l1.601-2.996c-0.012-14.626-4.992-28.086-13.345-38.786l0.105 0.14c-10.938-14.195-17.531-32.23-17.531-51.804 0-8.775 1.325-17.24 3.785-25.207l-0.161 0.604c41.129-103.171 121.398-183.318 221.987-223.344l2.669-0.937c7.298-2.265 15.688-3.57 24.383-3.57 19.52 0 37.504 6.576 51.858 17.634l-0.199-0.147c10.529 8.237 23.958 13.208 38.549 13.208 0.012 0 0.024 0 0.036 0h-0.002c45.682-26.319 85.165-55.963 120.664-89.753l-0.257 0.243c6.809-6.24 11.601-14.582 13.344-23.994l0.041-0.267c0.021-36.906-64.521-97.906-82.021-107.927zM609.489 818.167c-0.638 0.075-1.376 0.118-2.125 0.118-10.605 0-19.201-8.597-19.201-19.201 0-9.856 7.426-17.978 16.988-19.075l0.089-0.008c131.911-14.492 235.679-118.15 250.228-248.746l0.115-1.275c1.135-9.623 9.243-17.017 19.079-17.017 10.606 0 19.204 8.598 19.204 19.204 0 0.742-0.042 1.473-0.124 2.193l0.008-0.088c-16.66 149.733-134.482 267.43-282.825 283.767l-1.436 0.128zM721.396 528.042c1.777-8.906 9.524-15.527 18.821-15.542h0.002c1.307 0.004 2.581 0.136 3.812 0.386l-0.124-0.021c8.91 1.777 15.531 9.535 15.531 18.839 0 1.299-0.129 2.568-0.375 3.794l0.021-0.123c-14.746 75.080-72.971 133.301-146.871 147.848l-1.182 0.194c-1.102 0.225-2.37 0.353-3.667 0.353-10.602 0-19.197-8.595-19.197-19.197 0-9.305 6.62-17.064 15.408-18.823l0.123-0.020c59.685-11.724 105.969-58.005 117.544-116.748l0.154-0.94z" />
<glyph unicode="&#xe928;" glyph-name="Camera_Fill" d="M785.99 637.76h-88.698c-6.608 0.451-11.797 5.922-11.797 12.604 0 0.286 0.009 0.569 0.028 0.85l-0.002-0.038c0.008 0.468 0.013 1.021 0.013 1.574 0 51.637-41.34 93.618-92.729 94.654l-0.097 0.002h-161.208c-51.601-1.037-93.034-43.112-93.034-94.864 0-0.553 0.005-1.105 0.014-1.656l-0.001 0.083c0.011-0.199 0.018-0.431 0.018-0.665 0-6.667-5.191-12.121-11.752-12.542l-0.037-0.002h-88.687c-58.271-1.203-105.047-48.725-105.047-107.171 0-0.647 0.006-1.292 0.017-1.936l-0.001 0.097v-271.147c-0.010-0.547-0.016-1.193-0.016-1.84 0-58.446 46.776-105.967 104.935-107.169l0.112-0.002h547.958c58.271 1.203 105.047 48.725 105.047 107.171 0 0.647-0.006 1.292-0.017 1.937l0.001-0.097v271.147c0.010 0.548 0.016 1.194 0.016 1.841 0 58.442-46.771 105.961-104.924 107.167l-0.113 0.002zM512 244.451c0 0-0.001 0-0.001 0-75.89 0-137.411 61.521-137.411 137.411s61.521 137.411 137.411 137.411c75.89 0 137.411-61.521 137.411-137.411v0c0 0 0 0 0 0 0-75.89-61.52-137.41-137.41-137.411v0zM675.729 510.627c0 0-0.001 0-0.001 0-16.557 0-29.978 13.422-29.978 29.978s13.422 29.978 29.978 29.978c16.556 0 29.978-13.422 29.978-29.978v0c0-16.556-13.422-29.977-29.978-29.978v0z" />
<glyph unicode="&#xe929;" glyph-name="Camera" d="M785.99 637.76h-88.708c-6.603 0.456-11.787 5.924-11.787 12.603 0 0.286 0.010 0.571 0.028 0.852l-0.002-0.038c0.008 0.468 0.013 1.021 0.013 1.574 0 51.637-41.34 93.618-92.729 94.654l-0.097 0.002h-161.208c-51.601-1.037-93.034-43.112-93.034-94.864 0-0.553 0.005-1.105 0.014-1.656l-0.001 0.083c0.011-0.199 0.018-0.431 0.018-0.665 0-6.667-5.191-12.121-11.752-12.542l-0.037-0.002h-88.698c-58.266-1.208-105.037-48.726-105.037-107.169 0-0.648 0.006-1.294 0.017-1.938l-0.001 0.097v-271.147c-0.010-0.548-0.016-1.195-0.016-1.843 0-58.444 46.77-105.965 104.924-107.176l0.113-0.002h547.968c58.272 1.208 105.047 48.732 105.047 107.18 0 0.647-0.006 1.293-0.017 1.938l0.001-0.097v271.147c0.010 0.548 0.016 1.194 0.016 1.841 0 58.442-46.77 105.96-104.923 107.167l-0.113 0.002zM852.614 257.604c0.016-0.554 0.025-1.205 0.025-1.858 0-37.245-29.595-67.577-66.552-68.764l-0.109-0.003h-547.968c-37.060 1.191-66.649 31.52-66.649 68.759 0 0.656 0.009 1.31 0.027 1.962l-0.002-0.096v271.147c-0.016 0.555-0.025 1.209-0.025 1.865 0 37.237 29.591 67.564 66.541 68.747l0.109 0.003h88.698c27.802 0.44 50.171 23.082 50.171 50.947 0 0.231-0.002 0.461-0.005 0.692v-0.035c-0.014 0.474-0.022 1.031-0.022 1.59 0 30.549 24.253 55.433 54.554 56.449l0.093 0.002h161.209c30.288-1.045 54.444-25.85 54.444-56.296 0-0.614-0.010-1.225-0.029-1.835l0.002 0.089c-0.003-0.196-0.004-0.427-0.004-0.659 0-27.862 22.363-50.5 50.119-50.945l0.042-0.001h88.708c37.059-1.186 66.649-31.512 66.649-68.75 0-0.656-0.009-1.309-0.027-1.96l0.002 0.096zM512 538.469c-0.001 0-0.003 0-0.005 0-86.493 0-156.609-70.116-156.609-156.609s70.116-156.609 156.609-156.609c86.493 0 156.609 70.116 156.609 156.609 0 0.002 0 0.004 0 0.005v0c-0.104 86.448-70.156 156.5-156.594 156.604h-0.010zM512 263.646c-0.002 0-0.004 0-0.006 0-65.288 0-118.214 52.926-118.214 118.214s52.926 118.214 118.214 118.214c65.286 0 118.211-52.923 118.214-118.208v0c-0.075-65.256-52.953-118.138-118.2-118.219h-0.008zM675.729 570.585c0 0-0.001 0-0.001 0-16.557 0-29.978-13.422-29.978-29.978s13.422-29.978 29.978-29.978c16.556 0 29.978 13.421 29.978 29.978v0c0 0 0 0 0 0.001 0 16.556-13.421 29.978-29.978 29.978v0z" />
<glyph unicode="&#xe92a;" glyph-name="Cancel_Fill" d="M512 851.198c-222.676-0.006-403.187-180.522-403.187-403.198 0-222.68 180.518-403.198 403.198-403.198s403.198 180.518 403.198 403.198v0c-0.261 222.579-180.629 402.943-403.184 403.198h-0.024zM643.729 316.271c-3.477-3.476-8.279-5.625-13.583-5.625s-10.107 2.15-13.583 5.625l-104.665 104.674-104.376-104.372c-3.469-3.447-8.25-5.577-13.528-5.577-10.601 0-19.195 8.594-19.195 19.195 0 5.278 2.13 10.059 5.578 13.529l104.373 104.377-104.478 104.487c-3.447 3.469-5.577 8.25-5.577 13.528 0 10.601 8.594 19.195 19.195 19.195 5.278 0 10.059-2.13 13.529-5.578l104.481-104.481 104.372 104.378c3.473 3.461 8.264 5.602 13.555 5.602 10.605 0 19.202-8.597 19.202-19.202 0-5.286-2.136-10.073-5.592-13.546l-104.387-104.382 104.68-104.68c3.475-3.473 5.625-8.272 5.625-13.573s-2.15-10.1-5.625-13.573v0z" />
<glyph unicode="&#xe92b;" glyph-name="Cancel" d="M512 851.198c-222.68 0-403.198-180.518-403.198-403.198s180.518-403.198 403.198-403.198c222.68 0 403.198 180.518 403.198 403.198v0c-0.261 222.575-180.623 402.937-403.173 403.198h-0.025zM512 83.198c-201.475 0-364.802 163.327-364.802 364.802s163.327 364.802 364.802 364.802c201.475 0 364.802-163.327 364.802-364.802v0c-0.232-201.381-163.421-364.57-364.78-364.802h-0.022zM539.047 448.099l104.38 104.38c3.447 3.469 5.577 8.25 5.577 13.528 0 10.601-8.594 19.195-19.195 19.195-5.278 0-10.059-2.13-13.529-5.578l-104.379-104.379-104.484 104.484c-3.469 3.447-8.25 5.577-13.528 5.577-10.601 0-19.195-8.594-19.195-19.195 0-5.278 2.13-10.059 5.578-13.529l104.483-104.483-104.38-104.38c-3.5-3.478-5.667-8.295-5.667-13.618 0-10.601 8.594-19.195 19.195-19.195 5.323 0 10.14 2.167 13.617 5.666l104.381 104.381 104.683-104.683c3.469-3.447 8.25-5.577 13.528-5.577 10.601 0 19.195 8.594 19.195 19.195 0 5.278-2.13 10.059-5.578 13.529l0.001-0.001z" />
<glyph unicode="&#xe92c;" glyph-name="Cancelled-Orders_Fill" d="M512 851.198c-222.676-0.006-403.187-180.522-403.187-403.198 0-222.68 180.518-403.198 403.198-403.198s403.198 180.518 403.198 403.198v0c-0.262 222.578-180.629 402.942-403.184 403.198h-0.025zM147.208 448c0 0.189-0.001 0.413-0.001 0.636 0 201.124 163.043 364.166 364.166 364.166 94.077 0 179.823-35.674 244.447-94.231l-0.308 0.275-182.551-182.548c-12.080 3.607-26.281 6.34-40.888 7.664l-0.866 0.063v40.192h40.604c0.019 0 0.041 0 0.064 0 10.603 0 19.198 8.595 19.198 19.198s-8.595 19.198-19.198 19.198c-0.023 0-0.045 0-0.067 0h-119.622c-0.019 0-0.041 0-0.064 0-10.603 0-19.198-8.595-19.198-19.198s8.595-19.198 19.198-19.198c0.023 0 0.045 0 0.067 0h40.601v-40.328c-115.198-10.29-204.844-106.271-205.021-223.227v-8.882h-22.667c-0.019 0-0.041 0-0.064 0-10.603 0-19.198-8.595-19.198-19.198s8.595-19.198 19.198-19.198c0.023 0 0.045 0 0.067 0h44.936l-68.893-68.892c-58.238 64.109-93.905 149.639-93.941 243.499v0.007zM512 83.198c-93.962 0.037-179.569 35.779-243.997 94.394l0.294-0.264 514.38 514.37c58.378-64.342 94.114-150.157 94.114-244.319 0-201.132-163.050-364.181-364.181-364.181-0.215 0-0.429 0-0.644 0.001h0.034zM754.563 311.781h-22.688v8.864c0 0.123 0 0.268 0 0.414 0 70.213-32.396 132.86-83.057 173.807l-0.423 0.331c-3.267 2.655-7.477 4.263-12.063 4.263-5.131 0-9.792-2.013-13.236-5.291l0.008 0.007-197.396-187.677c-3.684-3.505-5.975-8.444-5.975-13.918 0-10.602 8.595-19.197 19.197-19.197 0.002 0 0.005 0 0.007 0h315.625c0.019 0 0.041 0 0.064 0 10.603 0 19.198 8.595 19.198 19.198s-8.595 19.198-19.198 19.198c-0.023 0-0.045 0-0.067 0h0.003z" />
<glyph unicode="&#xe92d;" glyph-name="Cancelled-Orders" d="M512 851.198c-222.676-0.006-403.187-180.522-403.187-403.198 0-222.68 180.518-403.198 403.198-403.198s403.198 180.518 403.198 403.198v0c-0.262 222.578-180.629 402.942-403.184 403.198h-0.025zM147.208 448c0 0.189-0.001 0.413-0.001 0.636 0 201.124 163.043 364.166 364.166 364.166 94.077 0 179.823-35.674 244.447-94.231l-0.308 0.275-182.551-182.548c-12.080 3.607-26.281 6.34-40.888 7.664l-0.866 0.063v40.192h40.604c0.019 0 0.041 0 0.064 0 10.603 0 19.198 8.595 19.198 19.198s-8.595 19.198-19.198 19.198c-0.023 0-0.045 0-0.067 0h-119.622c-0.019 0-0.041 0-0.064 0-10.603 0-19.198-8.595-19.198-19.198s8.595-19.198 19.198-19.198c0.023 0 0.045 0 0.067 0h40.601v-40.328c-115.198-10.29-204.844-106.271-205.021-223.227v-8.882h-22.667c-0.019 0-0.041 0-0.064 0-10.603 0-19.198-8.595-19.198-19.198s8.595-19.198 19.198-19.198c0.023 0 0.045 0 0.067 0h44.936l-68.893-68.892c-58.238 64.109-93.905 149.639-93.941 243.499v0.007zM540.854 504.24l-192.417-192.458h-22.251v8.864c0.077 102.644 83.305 185.824 185.959 185.824 10.134 0 20.078-0.811 29.772-2.371l-1.065 0.141zM512 83.198c-93.962 0.037-179.569 35.779-243.997 94.394l0.294-0.264 514.38 514.37c58.378-64.342 94.114-150.157 94.114-244.319 0-201.132-163.050-364.181-364.181-364.181-0.215 0-0.429 0-0.644 0.001h0.034zM754.563 311.781h-22.688v8.864c0 0.123 0 0.268 0 0.414 0 70.213-32.396 132.86-83.057 173.807l-0.423 0.331c-3.267 2.655-7.477 4.263-12.063 4.263-5.131 0-9.792-2.013-13.236-5.291l0.008 0.007-197.396-187.677c-3.684-3.505-5.975-8.444-5.975-13.918 0-10.602 8.595-19.197 19.197-19.197 0.002 0 0.005 0 0.007 0h315.625c0.019 0 0.041 0 0.064 0 10.603 0 19.198 8.595 19.198 19.198s-8.595 19.198-19.198 19.198c-0.023 0-0.045 0-0.067 0h0.003zM693.458 311.781h-206.458l149.833 142.458c34.932-33.697 56.625-80.916 56.625-133.202 0-0.138 0-0.275 0-0.413v0.022z" />
<glyph unicode="&#xe92e;" glyph-name="Card_Fill" d="M892.8 473.385v103.255h-761.6v-103.255zM761.6 737.281h-499.2c-69.477-0.087-126.409-53.678-131.811-121.778l-0.029-0.462h762.88c-5.431 68.562-62.363 122.153-131.831 122.24h-0.009zM130.133 434.987v-144c0.065-73.023 59.244-132.203 132.26-132.268h499.206c73.023 0.065 132.202 59.245 132.267 132.262v144.006zM800.798 261.865c0-0.001 0-0.001 0-0.002 0-5.927-4.805-10.732-10.732-10.732 0 0 0 0-0.001 0h-130.172c-5.928 0-10.733 4.805-10.733 10.733 0 0 0 0.001 0 0.001v0 82.609c0 0 0 0.001 0 0.001 0 5.928 4.805 10.733 10.733 10.733h130.172c0 0 0 0 0.001 0 5.927 0 10.732-4.805 10.732-10.732 0-0.001 0-0.001 0-0.002v0z" />
<glyph unicode="&#xe92f;" glyph-name="Card" d="M649.167 231.917h151.625c10.607 0.003 19.205 8.601 19.208 19.208v0 104.083c-0.003 10.607-8.601 19.205-19.208 19.208h-151.625c-10.607-0.003-19.205-8.601-19.208-19.208v0-104.083c0.003-10.607 8.601-19.205 19.208-19.208v0zM668.375 336h113.208v-65.667h-113.208zM761.542 737.271h-499.084c-73.048-0.093-132.24-59.285-132.333-132.324v-313.884c0.093-73.048 59.285-132.24 132.324-132.333h499.092c73.048 0.093 132.24 59.285 132.333 132.324v313.884c-0.093 73.048-59.285 132.24-132.324 132.333h-0.009zM262.458 698.854h499.084c48.168-0.153 87.77-36.625 92.864-83.459l0.037-0.416h-684.885c5.131 47.25 44.733 83.722 92.885 83.875h0.016zM855.458 291.062c-0.057-51.846-42.071-93.86-93.911-93.917h-499.089c-51.846 0.057-93.86 42.071-93.917 93.911v143.962h686.917zM855.458 473.437h-686.917v103.125h686.917z" />
<glyph unicode="&#xe930;" glyph-name="Cash-Doller_Fill" d="M529.562 422.74v-71.614c28.48 4.177 38.708 21.312 38.708 36.323 0 18.833-14.708 27.718-38.708 35.291zM459.979 510.917c0-13.885 10.583-22.886 36.333-30.667v64.302c-22.167-2.667-36.333-15.656-36.333-33.635zM881.896 528.177l-29.854 29.833c-13.4 13.412-21.688 31.934-21.688 52.391 0 0.086 0 0.171 0 0.257v-0.013 42.624c-0.083 62.428-50.675 113.012-113.097 113.083h-42.716c-0.060 0-0.131 0-0.203 0-20.416 0-38.899 8.276-52.277 21.657v0l-30.352 30.293c-20.453 20.305-48.631 32.855-79.739 32.855-31.316 0-59.661-12.717-80.154-33.269l-0.003-0.003-29.792-29.833c-13.437-13.407-31.984-21.698-52.467-21.698-0.048 0-0.096 0-0.144 0h-42.7c-62.406-0.099-112.966-50.674-113.042-113.076v-42.528c0-0.057 0-0.125 0-0.193 0-20.467-8.287-38.999-21.689-52.422l-30.374-30.416c-20.251-20.443-32.764-48.583-32.764-79.645 0-31.322 12.722-59.672 33.282-80.165l29.836-29.857c13.412-13.399 21.708-31.916 21.708-52.371 0-0.056 0-0.113 0-0.169v0.009-42.792c0.071-62.403 50.639-112.97 113.035-113.042h42.631c0.036 0 0.079 0 0.122 0 20.468 0 39-8.291 52.42-21.699l30.396-30.364c20.306-20.281 48.345-32.823 79.313-32.823 0.11 0 0.219 0 0.328 0h0.4c31.198 0.019 59.414 12.768 79.739 33.333l0.011 0.011 29.875 29.824c13.415 13.419 31.95 21.719 52.423 21.719 0.049 0 0.098 0 0.147 0h42.784c62.407 0.070 112.981 50.636 113.062 113.034v42.717c0 0.069 0 0.151 0 0.232 0 20.407 8.263 38.885 21.626 52.269l30.374 30.353c20.278 20.455 32.809 48.62 32.809 79.712 0 31.32-12.715 59.67-33.265 80.169l-0.002 0.002zM529.562 310.271v-18.979c0-0.018 0-0.039 0-0.060 0-9.182-7.443-16.625-16.625-16.625s-16.625 7.443-16.625 16.625c0 0.021 0 0.042 0 0.063v-0.003 18.562c-31.111 1.741-59.091 13.884-80.817 32.974l0.15-0.129c-3.337 3.031-5.424 7.388-5.424 12.231 0 3.757 1.256 7.221 3.37 9.995l-0.029-0.040 5.792 7.833c2.732 3.639 6.832 6.125 11.523 6.691l0.081 0.008c0.555 0.068 1.197 0.106 1.848 0.106 3.977 0 7.617-1.443 10.425-3.834l-0.023 0.019c14.474-12.535 32.559-21.275 52.494-24.481l0.61-0.081v80.625c-40.146 10.385-82.188 26.063-82.188 76.395 0 41.021 33.667 72.313 82.188 76.771v19.771c0 0.018 0 0.039 0 0.060 0 9.182 7.443 16.625 16.625 16.625s16.625-7.443 16.625-16.625c0-0.021 0-0.042 0-0.063v0.003-20.198c25.745-2.448 48.824-12.239 67.566-27.227l-0.253 0.196c3.625-3.051 5.912-7.59 5.912-12.664 0-3.954-1.389-7.584-3.707-10.428l-5.83-7.293c-3.076-3.789-7.733-6.19-12.951-6.19-4.007 0-7.684 1.416-10.557 3.776l0.029-0.023c-11.263 8.711-24.82 15.034-39.601 17.952l-0.607 0.1v-71.437c42.896-11.687 84.167-27.896 84.167-80.302 0-35.333-22.167-74.813-84.167-80.698z" />
<glyph unicode="&#xe931;" glyph-name="Cash-Doller" d="M881.896 528.177l-29.854 29.833c-13.4 13.412-21.688 31.934-21.688 52.391 0 0.086 0 0.171 0 0.257v-0.013 42.624c-0.083 62.428-50.675 113.012-113.097 113.083h-42.716c-0.060 0-0.131 0-0.203 0-20.416 0-38.899 8.276-52.277 21.657v0l-30.352 30.293c-20.453 20.305-48.631 32.855-79.739 32.855-31.316 0-59.661-12.717-80.154-33.269l-0.003-0.003-29.792-29.833c-13.437-13.407-31.984-21.698-52.467-21.698-0.048 0-0.096 0-0.144 0h-42.7c-62.406-0.099-112.966-50.674-113.042-113.076v-42.528c0-0.057 0-0.125 0-0.193 0-20.467-8.287-38.999-21.689-52.422l-30.374-30.416c-20.251-20.443-32.764-48.583-32.764-79.645 0-31.322 12.722-59.672 33.282-80.165l29.836-29.857c13.412-13.399 21.708-31.916 21.708-52.371 0-0.056 0-0.113 0-0.169v0.009-42.792c0.071-62.403 50.639-112.97 113.035-113.042h42.631c0.036 0 0.079 0 0.122 0 20.468 0 39-8.291 52.42-21.699l30.396-30.364c20.306-20.281 48.345-32.823 79.313-32.823 0.11 0 0.219 0 0.328 0h0.4c31.198 0.019 59.414 12.768 79.739 33.333l0.011 0.011 29.875 29.824c13.415 13.419 31.95 21.719 52.423 21.719 0.049 0 0.098 0 0.147 0h42.784c62.407 0.070 112.981 50.636 113.062 113.034v42.717c0 0.069 0 0.151 0 0.232 0 20.407 8.263 38.885 21.626 52.269l30.374 30.353c20.278 20.455 32.809 48.62 32.809 79.712 0 31.32-12.715 59.67-33.265 80.169l-0.002 0.002zM854.75 394.979l-29.937-29.917c-20.312-20.304-32.875-48.357-32.875-79.345 0-0.098 0-0.197 0-0.295v0.015-42.709c-0.060-41.216-33.468-74.61-74.685-74.645h-42.753c-0.071 0-0.156 0-0.24 0-31.023 0-59.107-12.584-79.426-32.926l-0.001-0.001-29.958-29.896c-13.436-13.609-32.086-22.044-52.705-22.063h-0.274c-0.054 0-0.119 0-0.183 0-20.459 0-38.983 8.283-52.401 21.679l-0.186 0.186-0.229 0.25-29.896 29.875c-20.335 20.325-48.422 32.896-79.445 32.896-0.071 0-0.141 0-0.212 0h-42.634c-41.198 0.057-74.58 33.445-74.624 74.641v42.817c0 0.042 0 0.091 0 0.14 0 31.047-12.588 59.154-32.938 79.495l-29.918 29.927c-13.638 13.526-22.082 32.272-22.082 52.99 0 20.208 8.032 38.539 21.079 51.976l-0.018-0.018c0.375 0.333 0.729 0.688 1.083 1.063v-0.010l29.896 29.927c20.326 20.356 32.896 48.461 32.896 79.502 0 0.069 0 0.137 0 0.206v-0.011 42.542c0.044 41.209 33.42 74.607 74.616 74.688h42.717c0.066 0 0.144 0 0.222 0 31.036 0 59.136 12.57 79.487 32.897l29.895 29.915c13.554 13.56 32.282 21.948 52.969 21.948 20.708 0 39.452-8.405 53.009-21.989l29.938-29.918c20.299-20.299 48.343-32.854 79.318-32.854 0.101 0 0.201 0 0.302 0h42.693c41.23-0.049 74.64-33.459 74.688-74.683v-42.629c0-0.088 0-0.193 0-0.297 0-31.026 12.571-59.116 32.897-79.454l29.936-29.916c13.567-13.559 21.958-32.294 21.958-52.99 0-20.707-8.401-39.451-21.98-53.011l-0.001-0.001zM529.562 471.271v71.437c15.388-3.018 28.946-9.341 40.429-18.216l-0.221 0.164c2.844-2.336 6.52-3.752 10.527-3.752 5.218 0 9.875 2.401 12.927 6.159l0.024 0.031 5.854 7.323c2.294 2.814 3.683 6.444 3.683 10.398 0 5.074-2.287 9.613-5.887 12.644l-0.025 0.021c-18.488 14.792-41.567 24.583-66.8 26.992l-0.513 0.040v20.198c0 0.018 0 0.039 0 0.060 0 9.182-7.443 16.625-16.625 16.625s-16.625-7.443-16.625-16.625c0-0.021 0-0.042 0-0.063v0.003-19.771c-48.521-4.459-82.188-35.75-82.188-76.771 0-50.333 42.042-66.010 82.188-76.395v-80.625c-20.545 3.287-38.63 12.028-53.238 24.676l0.134-0.113c-2.782 2.373-6.42 3.816-10.394 3.816-0.654 0-1.299-0.039-1.932-0.115l0.076 0.007c-4.772-0.574-8.872-3.059-11.573-6.655l-0.031-0.044-5.792-7.833c-2.085-2.734-3.341-6.198-3.341-9.955 0-4.844 2.087-9.2 5.411-12.219l0.014-0.012c21.576-18.96 49.556-31.103 80.318-32.828l0.349-0.016v-18.562c0-0.018 0-0.039 0-0.060 0-9.182 7.443-16.625 16.625-16.625s16.625 7.443 16.625 16.625c0 0.021 0 0.042 0 0.063v-0.003 18.979c62 5.885 84.167 45.364 84.167 80.698 0 52.405-41.27 68.614-84.167 80.301zM496.313 480.25c-25.749 7.781-36.333 16.781-36.333 30.667 0 17.979 14.167 30.969 36.333 33.635zM529.562 351.125v71.614c24-7.573 38.708-16.458 38.708-35.292 0-15.011-10.229-32.146-38.708-36.323z" />
<glyph unicode="&#xe932;" glyph-name="Cash-Euro_Fill" d="M881.896 528.177l-29.854 29.833c-13.4 13.412-21.688 31.934-21.688 52.391 0 0.086 0 0.171 0 0.257v-0.013 42.624c-0.083 62.428-50.675 113.012-113.097 113.083h-42.716c-0.060 0-0.131 0-0.203 0-20.416 0-38.899 8.276-52.277 21.657v0l-30.352 30.293c-20.453 20.305-48.631 32.855-79.739 32.855-31.316 0-59.661-12.717-80.154-33.269l-0.003-0.003-29.792-29.833c-13.437-13.407-31.984-21.698-52.467-21.698-0.048 0-0.096 0-0.144 0h-42.7c-62.406-0.099-112.966-50.674-113.042-113.076v-42.528c0-0.057 0-0.125 0-0.193 0-20.467-8.287-38.999-21.689-52.422l-30.374-30.416c-20.251-20.443-32.764-48.583-32.764-79.645 0-31.322 12.722-59.672 33.282-80.165l29.836-29.857c13.412-13.399 21.708-31.916 21.708-52.371 0-0.056 0-0.113 0-0.169v0.009-42.792c0.071-62.403 50.639-112.97 113.035-113.042h42.631c0.036 0 0.079 0 0.122 0 20.468 0 39-8.291 52.42-21.699l30.396-30.364c20.306-20.281 48.345-32.823 79.313-32.823 0.11 0 0.219 0 0.328 0h0.4c31.198 0.019 59.414 12.768 79.739 33.333l0.011 0.011 29.875 29.824c13.415 13.419 31.95 21.719 52.423 21.719 0.049 0 0.098 0 0.147 0h42.784c62.407 0.070 112.981 50.636 113.062 113.034v42.717c0 0.069 0 0.151 0 0.232 0 20.407 8.263 38.885 21.626 52.269l30.374 30.353c20.278 20.455 32.809 48.62 32.809 79.712 0 31.32-12.715 59.67-33.265 80.169l-0.002 0.002zM555.833 494.812c8.536-0.142 15.401-7.095 15.401-15.651s-6.865-15.509-15.388-15.651h-115.7c-0.597-4.642-0.938-10.011-0.938-15.46 0-0.017 0-0.035 0-0.052v0.003c0.010-5.176 0.35-10.263 1.001-15.253l-0.064 0.597h115.687c8.536-0.142 15.401-7.095 15.401-15.651s-6.865-15.509-15.388-15.651h-107.618c15.013-36.768 50.497-62.207 91.922-62.207 0.701 0 1.401 0.007 2.099 0.022l-0.104-0.002c27.351 0.192 51.734 12.732 67.879 32.318l0.121 0.152c2.872 3.532 7.217 5.77 12.085 5.77 2.602 0 5.054-0.639 7.209-1.77l-0.085 0.041 13.896-7.364c4.067-2.176 7.008-6.006 7.941-10.567l0.017-0.1c0.194-0.903 0.305-1.941 0.305-3.005 0-3.598-1.271-6.9-3.388-9.48l0.021 0.026c-24.215-30.516-61.301-49.913-102.917-49.913-1.083 0-2.164 0.013-3.241 0.039l0.16-0.003c-1.519-0.056-3.304-0.088-5.096-0.088-66.696 0-123.043 44.303-141.22 105.087l-0.268 1.043h-7.771c-8.536 0.142-15.401 7.095-15.401 15.651s6.865 15.509 15.388 15.651h2.408c-0.569 4.399-0.895 9.489-0.896 14.655v0.001c0 0.058 0 0.126 0 0.194 0 5.397 0.326 10.718 0.958 15.944l-0.062-0.629h-2.396c-8.536 0.142-15.401 7.095-15.401 15.651s6.865 15.509 15.388 15.651h8.221c18.551 61.368 74.591 105.283 140.888 105.283 1.85 0 3.691-0.034 5.524-0.102l-0.265 0.008c1.030 0.029 2.241 0.046 3.457 0.046 41.547 0 78.559-19.415 102.459-49.667l0.209-0.275c2.074-2.541 3.33-5.821 3.33-9.394 0-1.070-0.113-2.114-0.327-3.12l0.017 0.098c-0.949-4.65-3.881-8.471-7.855-10.605l-0.083-0.040-14-7.406c-2.069-1.090-4.522-1.73-7.124-1.73-4.868 0-9.213 2.239-12.062 5.743l-0.023 0.029c-16.266 19.737-40.649 32.277-67.967 32.469h-0.033c-0.637 0.015-1.388 0.023-2.141 0.023-41.039 0-76.226-25.056-91.097-60.704l-0.241-0.652z" />
</font>
</defs>
</svg>
